<?xml version="1.0" encoding="utf-8"?>
<!-- Generator: Adobe Illustrator 24.0.1, SVG Export Plug-In . SVG Version: 6.00 Build 0)  -->
<svg version="1.1" id="图层_1" xmlns="http://www.w3.org/2000/svg" xmlns:xlink="http://www.w3.org/1999/xlink" x="0px" y="0px"
	 viewBox="0 0 73.1 70" style="enable-background:new 0 0 73.1 70;" xml:space="preserve">
<style type="text/css">
	.st0{fill:#3D67FF;}
</style>
<title>资源 3</title>
<g id="图层_2_1_">
	<g id="图层_1-2">
		<g>
			<path class="st0" d="M36.6,0.9c0.5,1,0.9,1.9,1.4,2.9c2.3,4.9,4.6,9.8,6.9,14.6c0.1,0.2,0.1,0.4,0.1,0.6c0,5.7,0,11.4,0,17.1
				c0,0.2,0,0.4-0.1,0.6c-0.1,0.6-0.3,0.8-0.9,0.8c-4.9,0-9.9,0-14.8,0c-0.8,0-1-0.2-1.1-1.1c0-1.3,0-2.6,0-3.9c0-2.3,0-4.6,0-7
				c0-2.2,0-4.4,0-6.5c0-0.2,0-0.3,0.1-0.5c2.7-5.8,5.5-11.6,8.2-17.4C36.5,1,36.6,1,36.6,0.9z M38.8,19.2c0,0.1,0,0.2,0,0.2
				c0.3,1.2,1.6,1.8,2.7,1.5c0.1,0,0.1,0,0.2-0.1c1-0.3,1.6-1.5,1.3-2.5c0-0.1-0.1-0.2-0.1-0.3c-1.3-2.9-2.7-5.7-4-8.6
				c-0.1-0.1-0.2-0.2-0.3-0.2c-1.2,0-2.5,0-3.7,0c-0.1,0-0.3,0.1-0.3,0.2c-1.4,2.9-2.7,5.8-4.1,8.7c-0.5,1-0.1,2.1,0.9,2.6
				c0,0,0,0,0,0c1.3,0.7,2.7,0,3.2-1.5c0.3,1,1,1.7,2.1,1.7C37.6,21,38.4,20.3,38.8,19.2z M40.2,35.1V23.2h-1.1v11.9L40.2,35.1z
				 M34.1,23.2H33v11.9h1.1L34.1,23.2z"/>
			<path class="st0" d="M45.9,19.4c5.2-1.7,12.1,1.4,13.6,8.6c0.7,0.1,1.4,0.1,2.1,0.2c5.4,0.8,9.6,5,10.4,10.4
				c0.7,4.6-0.8,8.5-4.6,11.4c-0.4,0.3-0.8,0.5-1.3,0.7c-0.2,0.1-0.3,0.2-0.2,0.4c-0.2,4.2-3.4,7.7-7.6,8.2
				c-2.4,0.3-4.8-0.4-6.6-1.9l-0.3-0.2c-1,0.6-2.1,1.1-3.3,1.3c-4.3,0.7-8.6-2.1-9.3-6.7c-0.2-1.2,0-2.4,0-3.6
				c0-0.1,0.1-0.2,0.1-0.2l0.1,0c0,0.4,0.1,0.9,0.1,1.3c-0.1,1.3,0.2,2.6,0.8,3.8c2,3.9,7.2,4.9,10.3,2c0.4-0.4,0.8-0.9,1.3-1.4
				c0.4,0.4,0.7,0.9,1.2,1.2c1.8,1.6,3.9,2.1,6.3,1.3c2.2-0.7,3.8-2.5,4.1-4.8c0.6-3.3-1.7-6.6-5-7.3c-2-0.4-4,0-5.6,1.2
				c1,1.1,1.4,2.3,0.9,3.8c-0.2-0.4-0.4-0.7-0.5-1c-0.6-1.1-1.7-1.8-2.9-1.9c-1.8-0.2-3.4,1-3.7,2.8c-0.1,0.9,0.1,1.9,0.6,2.6
				l0.2,0.3c-1-0.3-1.9-1.6-2-2.8c-0.3-2.2,1.1-4.2,3.2-4.8c-0.2-0.6-0.4-1.1-0.5-1.7c-1.5-6.4,2.5-12.9,8.9-14.4
				c0.6-0.1,0.6-0.1,0.5-0.8c-0.7-4-3-6.7-6.8-8C48.9,19.2,47.4,19.1,45.9,19.4z M65.4,47.8C65.4,47.8,65.5,47.8,65.4,47.8
				c2.5-2.7,3.7-5.9,3-9.5c-0.9-5.3-5.9-8.9-11.2-8c-0.3,0-0.5,0.1-0.8,0.2c-4.9,1.2-8.2,5.8-7.9,10.8c0.1,1,0.3,2,0.6,3
				c0.5,0,0.9,0.1,1.4,0.2c0.4,0.1,0.9,0.3,1.3,0.5C55.8,40.5,63.4,42.1,65.4,47.8z"/>
			<path class="st0" d="M27.3,19.4c-3.3-0.4-6.2,0.5-8.6,2.8c-1.6,1.6-2.6,3.8-2.7,6.1c3.6,0.8,6.5,2.8,8.3,6s2,6.7,0.6,10.2
				c2.1,0.8,3.3,2.3,3.1,4.7c-0.1,1.3-0.9,2.5-2.1,3c0.2-0.4,0.4-0.7,0.5-1c0.7-1.4,0.3-3.1-0.9-4.1c-1.3-1.1-3.2-1-4.5,0.1
				c-0.5,0.5-1,1.1-1.2,1.7c0,0.1-0.1,0.2-0.2,0.3c-0.6-0.9-0.3-2.2,0.8-3.8c-0.7-0.5-1.4-0.9-2.3-1.1c-3.4-1-6.9,0.8-8.1,4.1
				c-1.1,3.3,0.6,6.8,3.9,7.9c2.3,0.8,4.8,0.2,6.5-1.6c0.3-0.3,0.6-0.6,0.9-1c0.3,0.3,0.5,0.5,0.7,0.8c3,3.4,8.3,2.8,10.6-1
				c0.7-1.2,1.1-2.7,1.1-4.1c0-0.4,0-0.8,0-1.2c0-0.1,0.1-0.3,0.1-0.4c0.1,0.2,0.2,0.2,0.2,0.3c0,1.3,0.2,2.7-0.1,4
				c-0.7,3.2-3.2,5.7-6.4,6.3c-2.1,0.4-4.2-0.1-6-1.2c-0.7,0.4-1.3,0.9-2,1.3c-4.3,2.1-9.4,0.4-11.5-3.9c-0.3-0.6-0.5-1.3-0.7-1.9
				c-0.1-0.5-0.2-1-0.2-1.5c0-0.2-0.1-0.3-0.3-0.4c-3.3-1.7-5.2-4.5-5.8-8.1C-0.1,35.5,5,29.3,11.5,28.2c0.6-0.1,1.2-0.2,1.8-0.2
				c0.3,0,0.3-0.1,0.4-0.3c1-4.3,3.7-7.2,7.9-8.4C23.5,18.8,25.4,18.8,27.3,19.4z M23.9,44.4c0.7-1.8,0.8-3.7,0.5-5.5
				c-1-5.6-6.3-9.4-11.9-8.5c0,0,0,0,0,0c-4.4,0.8-7.7,4.6-8,9.1c-0.2,3.1,0.9,5.8,3,8.1c0.1,0.1,0.2,0.1,0.2,0.2
				c1.2-2.8,3.1-4.6,6-5.3s5.5,0.2,7.6,2.4C22.1,44.5,23,44.3,23.9,44.4z"/>
			<path class="st0" d="M33.1,38.4h11c0.6,0,0.8,0.2,0.9,0.7c0.1,1.9,0.1,3.8-1,5.5C43,46,41.7,46.8,40,46.8c-2.2,0-4.4,0-6.7,0
				c-1.2,0.1-2.5-0.4-3.3-1.3c-1-1.1-1.6-2.4-1.7-3.9c0-0.7-0.1-1.4,0-2.1c0-0.2,0.1-0.4,0.1-0.6c0.1-0.3,0.3-0.4,0.6-0.4
				C30.3,38.4,31.7,38.4,33.1,38.4L33.1,38.4z"/>
		</g>
		<g>
			<g>
				<path class="st0" d="M13.5,66.1h-0.9c0-0.5-0.3-0.8-0.7-0.8s-0.7,0.6-0.7,1.6c0,1,0.3,1.6,0.7,1.6s0.7-0.3,0.7-0.8h0.9
					c-0.1,1-0.6,1.4-1.6,1.4c-1,0-1.6-0.8-1.6-2.2c0-1.5,0.6-2.2,1.6-2.3C12.9,64.7,13.5,65.2,13.5,66.1z"/>
				<path class="st0" d="M14.9,67.3v1.7H14v-4.3h1.6c0.9,0,1.3,0.4,1.3,1.1c0.1,0.5-0.3,1-0.8,1.1v0c0.4,0,0.6,0.3,0.7,0.9
					c0,0.1,0,0.1,0,0.2c0,0.3,0.1,0.7,0.2,1h-0.9c-0.1-0.4-0.1-0.8-0.2-1.2c0-0.4-0.1-0.5-0.3-0.5L14.9,67.3z M14.9,65.5v1.1h0.7
					c0.3,0,0.6-0.2,0.6-0.5c0,0,0-0.1,0-0.1c0-0.3-0.2-0.5-0.5-0.5c0,0-0.1,0-0.1,0L14.9,65.5z"/>
				<path class="st0" d="M17.6,69.1v-4.3h2.6v0.7h-1.7v1h1.6v0.7h-1.6v1.2h1.8v0.7H17.6z"/>
				<path class="st0" d="M21.5,69.1h-0.8l1.4-4.3h1l1.3,4.3h-0.8l-0.3-0.9h-1.5L21.5,69.1z M22,67.4h1.1l-0.5-1.8h0L22,67.4z"/>
				<path class="st0" d="M24.5,65.5v-0.7h3.1v0.7h-1.1v3.6h-0.8v-3.6H24.5z"/>
				<path class="st0" d="M28.9,64.7v4.3h-0.8v-4.3H28.9z"/>
				<path class="st0" d="M30.8,69.1l-1.4-4.3h0.9l1,3.4l1-3.4h0.8l-1.4,4.3H30.8z"/>
				<path class="st0" d="M33.5,69.1v-4.3h2.6v0.7h-1.8v1h1.6v0.7h-1.6v1.2h1.8v0.7H33.5z"/>
			</g>
			<g>
				<path class="st0" d="M40.4,66.7c0.4-0.2,0.6-0.6,0.5-1c0-0.3-0.1-0.6-0.3-0.8c-0.3-0.2-0.6-0.3-0.9-0.3H38v4.3h1.7
					c0.3,0,0.7-0.1,0.9-0.3c0.2-0.2,0.4-0.6,0.3-0.9c0-0.3-0.1-0.7-0.3-0.9C40.6,66.9,40.5,66.8,40.4,66.7z M38.6,67h1.1
					c0.5,0,0.8,0.3,0.8,0.8c0,0.5-0.3,0.8-0.8,0.8h-1.1V67z M40.2,66.3c-0.1,0.1-0.3,0.2-0.5,0.2h-1.1v-1.3h1.1
					c0.5,0,0.7,0.2,0.7,0.6C40.4,66,40.3,66.2,40.2,66.3z"/>
				<path class="st0" d="M44.6,65.2c-0.6-0.7-1.7-0.8-2.4-0.2c-0.1,0.1-0.1,0.1-0.2,0.2c-0.7,1-0.7,2.3,0,3.3
					c0.6,0.7,1.7,0.8,2.5,0.2c0.1-0.1,0.1-0.1,0.2-0.2C45.3,67.5,45.3,66.2,44.6,65.2z M44.1,68.3c-0.2,0.2-0.5,0.4-0.8,0.4
					c-0.4,0-0.7-0.2-0.9-0.5c-0.5-0.8-0.5-1.8,0-2.5c0.4-0.5,1.1-0.6,1.6-0.2c0.1,0,0.1,0.1,0.2,0.1C44.7,66.3,44.7,67.4,44.1,68.3
					L44.1,68.3z"/>
				<path class="st0" d="M48.6,65.2c-0.6-0.7-1.7-0.8-2.4-0.2c-0.1,0.1-0.2,0.1-0.2,0.2c-0.7,1-0.7,2.3,0,3.3
					c0.6,0.7,1.7,0.8,2.5,0.2c0.1-0.1,0.1-0.1,0.2-0.2c0.3-0.5,0.5-1.1,0.5-1.6C49.2,66.3,49,65.7,48.6,65.2L48.6,65.2z M48.1,68.3
					c-0.2,0.2-0.5,0.4-0.8,0.4c-0.4,0-0.7-0.2-0.9-0.5c-0.5-0.8-0.5-1.8,0-2.5c0.4-0.5,1.1-0.6,1.6-0.2c0.1,0,0.1,0.1,0.2,0.1
					C48.7,66.3,48.7,67.4,48.1,68.3L48.1,68.3z"/>
				<path class="st0" d="M51.3,66.6c-0.2,0-0.5-0.1-0.7-0.2c-0.2-0.1-0.4-0.3-0.4-0.6c0-0.2,0.1-0.4,0.2-0.5
					c0.2-0.1,0.4-0.2,0.6-0.2c0.3,0,0.5,0.1,0.7,0.3c0.1,0.1,0.1,0.3,0.2,0.4v0.1l0.6-0.1v-0.1c0-0.2-0.1-0.4-0.2-0.6
					c-0.3-0.4-0.7-0.6-1.2-0.5c-0.4,0-0.7,0.1-1,0.3c-0.3,0.2-0.4,0.6-0.4,0.9c0,0.4,0.2,0.7,0.5,0.9c0.2,0.1,0.5,0.2,0.7,0.3
					c0.3,0.1,0.5,0.1,0.8,0.3c0.2,0.1,0.3,0.3,0.3,0.5c0,0.2-0.1,0.4-0.2,0.6c-0.2,0.1-0.4,0.2-0.7,0.2c-0.3,0-0.6-0.1-0.8-0.4
					c-0.1-0.2-0.1-0.3-0.1-0.5v-0.1l-0.6,0.1v0.1c0,0.3,0.1,0.5,0.3,0.8c0.3,0.4,0.8,0.6,1.3,0.6c0.4,0,0.8-0.1,1.1-0.3
					c0.3-0.2,0.4-0.6,0.4-1c0-0.3-0.1-0.6-0.3-0.8C51.9,66.8,51.6,66.7,51.3,66.6z"/>
				<path class="st0" d="M55.3,64.7h-2.6v0.5h1.4v3.8h0.6v-3.8H56v-0.5H55.3L55.3,64.7z"/>
				<path class="st0" d="M58.4,68.5h-1.5V67h1.9v-0.5h-1.9v-1.3H59v-0.5h-2.7v4.4h2.1c0.2,0,0.4,0,0.6,0H59v-0.6H58.4L58.4,68.5z"/>
				<path class="st0" d="M62.7,68.9c-0.1-0.1-0.1-0.3-0.2-0.5c-0.2-0.4-0.3-0.7-0.4-0.9c-0.1-0.2-0.2-0.4-0.4-0.6
					c0.1-0.1,0.3-0.1,0.4-0.2c0.2-0.2,0.3-0.5,0.3-0.9c0-0.3-0.1-0.6-0.3-0.8c-0.2-0.2-0.6-0.3-0.9-0.3h-1.7v4.4h0.5v-1.9H61
					c0.2,0,0.3,0.1,0.4,0.2c0.2,0.2,0.3,0.5,0.4,0.7c0.2,0.5,0.3,0.7,0.3,0.9l0,0.1h0.6L62.7,68.9z M62,65.9c0,0.2-0.1,0.4-0.2,0.5
					c-0.1,0.1-0.3,0.2-0.5,0.2h-1.1v-1.4h1.2C61.7,65.2,61.9,65.4,62,65.9L62,65.9z"/>
			</g>
		</g>
	</g>
</g>
</svg>
