<?xml version="1.0" encoding="utf-8"?>
<!-- Generator: Adobe Illustrator 24.0.1, SVG Export Plug-In . SVG Version: 6.00 Build 0)  -->
<svg version="1.1" id="图层_1" xmlns="http://www.w3.org/2000/svg" xmlns:xlink="http://www.w3.org/1999/xlink" x="0px" y="0px"
	 viewBox="0 0 70 70" style="enable-background:new 0 0 70 70;" xml:space="preserve">
<style type="text/css">
	.st0{fill:#FFFFFF;}
</style>
<title>Sinobot 订单挽回&amp;追踪组件</title>
<g>
	<g id="online-shop-7_1_" transform="translate(0.000000, 76.027400)">
		<g id="Shape_15_">
			<path class="st0" d="M20.2-13c-3.1,0-5.6-2.5-5.6-5.6s2.5-5.6,5.6-5.6s5.6,2.5,5.6,5.6C25.8-15.5,23.3-13,20.2-13z M20.2-21.4
				c-1.6,0-2.8,1.3-2.8,2.8c0,1.6,1.3,2.8,2.8,2.8c1.6,0,2.8-1.3,2.8-2.8C23.1-20.2,21.7-21.4,20.2-21.4z"/>
			<path class="st0" d="M20.2-12.4c-3.4,0-6.2-2.8-6.2-6.2s2.8-6.2,6.2-6.2s6.2,2.8,6.2,6.2S23.7-12.4,20.2-12.4z M20.2-23.6
				c-2.8,0-5,2.3-5,5s2.3,5,5,5s5-2.3,5-5S23-23.6,20.2-23.6z M20.2-15.2c-1.9,0-3.4-1.5-3.4-3.4s1.5-3.4,3.4-3.4
				c1.8,0,3.4,1.6,3.4,3.4C23.7-16.7,22.2-15.2,20.2-15.2z M20.2-20.8c-1.3,0-2.3,1-2.3,2.3s1,2.3,2.3,2.3s2.3-1,2.3-2.3
				S21.5-20.8,20.2-20.8z"/>
		</g>
		<g id="Shape_14_">
			<path class="st0" d="M50.7-13c-3.1,0-5.6-2.5-5.6-5.6s2.5-5.6,5.6-5.6s5.6,2.5,5.6,5.6S53.8-13,50.7-13z M50.7-21.4
				c-1.6,0-2.8,1.3-2.8,2.8c0,1.6,1.3,2.8,2.8,2.8s2.8-1.3,2.8-2.8C53.5-20.2,52.2-21.4,50.7-21.4z"/>
			<path class="st0" d="M50.7-12.4c-3.4,0-6.2-2.8-6.2-6.2s2.8-6.2,6.2-6.2s6.2,2.8,6.2,6.2S54.1-12.4,50.7-12.4z M50.7-23.6
				c-2.8,0-5,2.3-5,5s2.3,5,5,5s5-2.3,5-5S53.4-23.6,50.7-23.6z M50.7-15.2c-1.9,0-3.4-1.5-3.4-3.4s1.5-3.4,3.4-3.4
				c1.8,0,3.4,1.6,3.4,3.4C54.1-16.7,52.6-15.2,50.7-15.2z M50.7-20.8c-1.3,0-2.3,1-2.3,2.3s1,2.3,2.3,2.3s2.3-1,2.3-2.3
				C52.9-19.8,51.9-20.8,50.7-20.8z"/>
		</g>
		<polygon id="Rectangle-path_1_" class="st0" points="25.6,-20.5 47,-20.5 47,-16.9 25.6,-16.9 		"/>
		<path id="Shape_13_" class="st0" d="M22.3-21.2c-0.3,0-0.6-0.1-0.9-0.3c-0.8-0.5-1.1-1.5-0.6-2.3l3.3-5.8c0.5-0.8,1.5-1,2.3-0.6
			c0.8,0.5,1.1,1.5,0.6,2.3l-3.2,5.7C23.5-21.6,22.9-21.2,22.3-21.2z"/>
		<path id="Shape_12_" class="st0" d="M25.5-26.1c-0.7,0-1.3-0.4-1.5-1l-9.7-21.2c-0.3-0.5-0.2-1.1,0.2-1.6c0.3-0.5,0.8-0.8,1.4-0.8
			h13.3c0.9,0,1.7,0.8,1.7,1.7s-0.8,1.7-1.7,1.7H18.4l8.1,17.8l21-0.6c2.5-0.3,4.4-2.4,4.4-5v-12.2h-8.3c-0.9,0-1.7-0.8-1.7-1.7
			s0.8-1.7,1.7-1.7h9.9c0.9,0,1.7,0.8,1.7,1.7v13.8c0,4.3-3.2,7.8-7.4,8.3L25.5-26.1C25.6-26.1,25.5-26.1,25.5-26.1z"/>
		<path id="Shape_11_" class="st0" d="M16.9-45.8c-0.5,0-1.1-0.3-1.3-0.8l-2.8-4.3H7.1c-0.9,0-1.7-0.8-1.7-1.8
			c0-0.9,0.8-1.8,1.7-1.8h6.6c0.6,0,1.1,0.3,1.3,0.8l3.3,5.2c0.5,0.8,0.3,1.8-0.4,2.3C17.5-45.9,17.2-45.8,16.9-45.8z"/>
	</g>
	<g id="编组-5备份_1_" transform="translate(112.224184, 122.664755)">
		<g id="Shape_10_">
			<path class="st0" d="M-67.6-80.3h-15.7c-0.4,0-0.8-0.3-0.8-0.8v-9.8c0-0.4,0.3-0.8,0.8-0.8h15.7c0.4,0,0.8,0.3,0.8,0.8v9.8
				C-66.9-80.6-67.2-80.3-67.6-80.3z M-82.5-81.7h14.2V-90h-14.2V-81.7z"/>
			<path class="st0" d="M-67.6-79.7h-15.7c-0.8,0-1.3-0.6-1.3-1.3v-9.8c0-0.8,0.6-1.3,1.3-1.3h15.7c0.8,0,1.3,0.6,1.3,1.3v9.8
				C-66.3-80.3-66.9-79.7-67.6-79.7z M-83.3-91c-0.1,0-0.2,0.1-0.2,0.2v9.8c0,0.1,0.1,0.2,0.2,0.2h15.7c0.1,0,0.2-0.1,0.2-0.2v-9.8
				c0-0.1-0.1-0.2-0.2-0.2H-83.3z M-67.8-81.1h-15.3v-9.4h15.3V-81.1z M-82-82.3h13v-7.1h-13V-82.3z"/>
		</g>
		<g id="Shape_8_">
			<path class="st0" d="M-75.4-85.7c0.2,0,0.3,0,0.4,0.1l1.7,0.7V-90h-4.1v5.1l1.7-0.7C-75.7-85.7-75.5-85.7-75.4-85.7z"/>
			<path class="st0" d="M-78-84.1v-6.5h5.3v6.5l-2.6-1h-0.1l0,0L-78-84.1z M-75.4-86.3c0.2,0,0.4,0,0.7,0.2l0.8,0.3v-3.7h-2.9v3.7
				L-76-86C-76-86.2-75.7-86.3-75.4-86.3z"/>
		</g>
	</g>
	<g>
		<path class="st0" d="M54.5,13c0,0.5,0.3,0.9,0.8,0.9v-0.1h0.3V12h-0.3C54.8,12.1,54.5,12.5,54.5,13z"/>
		<path class="st0" d="M57.9,15.7h-0.3v1.8h0.3c0.5,0,0.8-0.4,0.8-0.8C58.6,16.2,58.4,15.7,57.9,15.7z"/>
		<path class="st0" d="M56.4,6.4c-4.6-0.1-8.4,3.6-8.5,8.2s3.6,8.3,8.2,8.4s8.4-3.5,8.5-8.1C64.8,10.3,61,6.5,56.4,6.4z M57.8,19.2
			h-0.3v0.4c0,0.5-0.4,0.9-0.9,0.9s-0.9-0.4-0.9-0.9v-0.4h-1.5c-0.5,0-0.9-0.4-0.9-0.9s0.4-0.9,0.9-0.9h1.5v-1.7h-0.3
			c-1.5,0-2.7-1.3-2.6-2.8s1.3-2.8,2.8-2.7h0.3V9.8c0-0.5,0.4-0.9,0.9-0.9s0.9,0.4,0.9,0.9v0.5h1.5c0.5,0,0.9,0.4,0.9,0.9
			s-0.4,0.9-0.9,0.9h-1.5v1.7H58c1.5,0,2.7,1.3,2.7,2.8C60.4,18.1,59.3,19.3,57.8,19.2z"/>
	</g>
	<g id="编组-4_1_" transform="translate(148.423855, 29.236209)">
		<g id="Shape_7_">
			<path class="st0" d="M-104.3-11.5l-1.9,1.9c-0.4,0.4-0.4,1,0,1.4c0.4,0.4,1,0.4,1.4,0l3.6-3.6c0.4-0.4,0.4-1,0-1.4l-3.6-3.6
				c-0.4-0.4-1-0.4-1.4,0s-0.4,1,0,1.4l1.8,1.8L-104.3-11.5z"/>
			<path class="st0" d="M-105.5-7.5c-0.3,0-0.8-0.2-1-0.4c-0.6-0.6-0.6-1.4,0-2l1.8-1.8l-0.1-1.7l-1.8-1.7c-0.6-0.6-0.6-1.4,0-2
				c0.6-0.6,1.4-0.6,2,0l3.6,3.6c0.6,0.6,0.6,1.4,0,2l-3.6,3.6C-104.8-7.6-105.1-7.5-105.5-7.5z M-105.5-16.7
				c-0.2,0-0.3,0.1-0.4,0.2c-0.3,0.3-0.3,0.6,0,0.8l1.9,1.9l0.1,2.3l-2.1,2.1c-0.3,0.3-0.3,0.6,0,0.8c0.3,0.3,0.6,0.3,0.8,0l3.6-3.6
				c0.3-0.3,0.3-0.6,0-0.8l-3.6-3.6C-105.2-16.6-105.4-16.7-105.5-16.7z"/>
		</g>
		<g id="路径-4_1_">
			<path class="st0" d="M-112.8-0.2c-1,0-1.8-0.8-1.8-1.8c0-6.9,3.7-11.3,10.6-12.6c1-0.2,1.9,0.4,2.1,1.4s-0.4,1.9-1.4,2.1
				c-5.3,1-7.8,3.8-7.8,9.1C-111.1-1-111.8-0.2-112.8-0.2z"/>
		</g>
	</g>
</g>
</svg>
