<?xml version="1.0" encoding="utf-8"?>
<!-- Generator: Adobe Illustrator 24.0.1, SVG Export Plug-In . SVG Version: 6.00 Build 0)  -->
<svg version="1.1" id="图层_1" xmlns="http://www.w3.org/2000/svg" xmlns:xlink="http://www.w3.org/1999/xlink" x="0px" y="0px"
	 viewBox="0 0 70 70" style="enable-background:new 0 0 70 70;" xml:space="preserve">
<style type="text/css">
	.st0{fill-rule:evenodd;clip-rule:evenodd;fill:#247AE6;}
</style>
<title>Auto Feed-Sinoclick  快捷广告商品生成器备份</title>
<g id="页面-1">
	<g id="画板" transform="translate(-927.000000, -1070.000000)">
		<g id="Auto-Feed-Sinoclick--快捷广告商品生成器备份" transform="translate(927.000000, 1070.170285)">
			<path id="形状" class="st0" d="M33.8,56.6v4.8c0,0.7,0.1,1.2,0.4,1.6c0.2,0.4,0.6,0.5,1.2,0.5c0.6,0,1.1-0.2,1.4-0.5
				c0.3-0.4,0.4-0.9,0.4-1.6v-0.3v-4.4h2.3v8.4h-2.2V64h-0.1c-0.3,0.5-0.7,0.9-1.2,1.1c-0.4,0.2-1,0.4-1.4,0.4
				c-0.6,0-1.2-0.1-1.5-0.3c-0.4-0.2-0.7-0.4-1-0.7c-0.3-0.4-0.4-0.7-0.4-1.1c-0.1-0.4-0.1-0.7-0.2-1.2V62v-5.2L33.8,56.6L33.8,56.6
				z M51.1,56.4c0.7,0,1.2,0.1,1.8,0.4c0.5,0.2,1,0.5,1.4,0.9c0.4,0.4,0.7,0.9,0.9,1.4c0.2,0.5,0.4,1.2,0.4,1.9
				c0,0.7-0.1,1.3-0.4,1.9c-0.2,0.5-0.5,1-0.9,1.4c-0.4,0.4-0.9,0.7-1.4,0.9c-0.5,0.2-1.2,0.4-1.8,0.4c-0.6,0-1.2-0.1-1.8-0.4
				c-0.5-0.3-1-0.5-1.4-0.9c-0.4-0.4-0.7-0.9-0.9-1.4s-0.4-1.2-0.4-1.9c0-0.7,0.1-1.3,0.4-1.9c0.2-0.5,0.5-1.1,0.9-1.4
				c0.4-0.4,0.9-0.7,1.4-0.9C49.9,56.5,50.4,56.4,51.1,56.4z M44.2,54.1v2.6h1.7v1.6h-1.7v4.2c0,0.4,0.1,0.6,0.2,0.8
				c0.1,0.1,0.4,0.2,0.8,0.2c0.1,0,0.3,0,0.4,0h0.2l0,0h0.2v1.8c-0.2,0-0.4,0-0.7,0s-0.4,0-0.7,0c-0.4,0-0.7,0-1.1-0.1
				c-0.4-0.1-0.6-0.2-0.9-0.3c-0.3-0.2-0.4-0.4-0.6-0.6c0-0.2,0-0.4-0.1-0.8v-0.2v-5h-1.4v-1.6h1.4v-2.6
				C41.8,54.1,44.2,54.1,44.2,54.1z M26.3,53.3l4.4,11.7h-2.7l-0.9-2.6h-4.4l-0.9,2.6h-2.6l4.4-11.7H26.3z M51.1,58.1
				c-0.4,0-0.7,0.1-1,0.3c-0.3,0.2-0.4,0.4-0.6,0.6c-0.2,0.3-0.3,0.5-0.4,0.9c-0.1,0.4-0.1,0.6-0.1,1s0,0.7,0.1,1
				c0.1,0.4,0.2,0.6,0.4,0.9c0.2,0.3,0.4,0.4,0.6,0.6c0.3,0.2,0.6,0.3,1,0.3c0.4,0,0.7-0.1,1-0.3c0.3-0.2,0.4-0.4,0.6-0.6
				s0.3-0.5,0.4-0.9c0.1-0.4,0.1-0.6,0.1-1c0-0.4,0-0.7-0.1-1c-0.1-0.4-0.2-0.6-0.4-0.9s-0.4-0.4-0.6-0.6
				C51.8,58.2,51.5,58.1,51.1,58.1z M24.9,56.3L24.9,56.3l-1.6,4.3h3L24.9,56.3z M41.4,20.8l4.3,0.1C51.2,21,55,26.6,53,31.7
				L51.7,35c-2,5.1-6.9,8.4-12.4,8.4l-27.3-0.2c-0.3,0-0.4,0-0.6-0.1L10.7,45c-0.3,0.6-0.6,1.1-1.2,1.1c-0.3,0-0.4-0.1-0.5-0.2
				l-6.5-6c-0.4-0.4-0.3-1.1,0.3-1.6c0.1-0.1,0.3-0.2,0.4-0.3l10.3-5.4c0.6-0.4,1.3-0.3,1.4,0.3c0.1,0.2,0.1,0.4,0,0.6l-0.6,1.8
				l23-0.3c2,0,3.8-1.5,4.2-3.5c0.3-1.5-0.9-2.9-2.5-3h-6L41.4,20.8z M60.6,3.7c0.3,0,0.4,0.1,0.5,0.2l6.6,6.2
				c0.4,0.4,0.3,1.1-0.3,1.6c-0.1,0-0.3,0.2-0.4,0.2l-10.5,5.3c-0.6,0.4-1.3,0.3-1.4-0.3c-0.1-0.2-0.1-0.4,0-0.6l0.5-1.4H32.4
				c-1.9,0-3.5,1.3-3.8,3.2c-0.2,1.3,0.8,2.5,2.1,2.5l4.3,0.1l-8.8,7.8h-1.6c-5.8,0-9.8-5.6-8-11l0.4-1.2c1.8-5.5,6.9-9.2,12.8-9.3
				l28.8-0.4l0.7-1.9C59.5,4.1,59.9,3.7,60.6,3.7z"/>
		</g>
	</g>
</g>
</svg>
