<?xml version="1.0" encoding="utf-8"?>
<!-- Generator: Adobe Illustrator 24.0.1, SVG Export Plug-In . SVG Version: 6.00 Build 0)  -->
<svg version="1.1" id="图层_1" xmlns="http://www.w3.org/2000/svg" xmlns:xlink="http://www.w3.org/1999/xlink" x="0px" y="0px"
	 viewBox="0 0 146 70" style="enable-background:new 0 0 146 70;" xml:space="preserve">
<style type="text/css">
	.st0{fill-rule:evenodd;clip-rule:evenodd;fill:#FFFFFF;}
	.st1{fill-rule:evenodd;clip-rule:evenodd;fill:#3B4B85;}
	.st2{fill-rule:evenodd;clip-rule:evenodd;fill:url(#Fill-25_1_);}
</style>
<title>logoBeepup</title>
<g id="页面-1">
	<g id="画板" transform="translate(-1574.000000, -1070.000000)">
		<g id="logoBeepup" transform="translate(1574.000000, 1070.000000)">
			<g id="形状">
				<g>
					<path id="path-1" class="st0" d="M33.3,7.4c0.3,0.8,0.6,1.8,1,2.6c0.8,1.5,1.5,3.1,2.4,4.4c3,4.2,7.9,5.4,12.6,3.1
						c3.1-1.5,5.3-4.1,7-7l0.1-0.2c0.2-0.3,0.3-0.6,0.6-1.2c0,1.1-0.1,1.9,0,2.8c0.5,3.6,2.6,5,6.2,4.2c5.3-1.2,10-3.6,14.7-6.2
						l0.6-0.3c0.4-0.3,0.9-0.5,1.3-0.7c-3.1,4.7-7.1,9-5.9,15.1c1.8-0.4,3.4-1.1,4.9-1.2c4.1-0.3,7.9,2.4,9.3,6.5
						c2.1,5.8,0,11.3-4.4,15.1c-2.3,2.1-5.4,2.3-8.4,1.5c-0.2-0.1-0.4-0.2-0.6-0.3L74,45.4v4.2c0,0.5,0,0.9,0,1.4v1.5
						c0,0.8,0.1,1.5-0.9,1.9c-0.1,0-0.2,0.3-0.2,0.3c0,1.3-0.9,1.4-1.9,1.4s-1.9,0-2.9,0c-0.8,0-1.2-0.4-1.3-1.3c0-1,0.3-2.1-0.4-3
						L66,51.5c-1.4-1.7-2.9-3.4-4.9-4.3c-2-0.8-5.6,1.1-6.8,3.4c-0.8,1.5-1,3.1-0.7,4.8c-0.7-1-1.3-1.9-2-2.9
						c-2.9-3.8-6.8-4.4-10.8-1.7c-3.5,2.3-6.2,5.5-8.7,8.8c-0.8,1-1.6,2.1-2.5,3.4c0-2.9,0.2-5.4-0.1-7.9c-0.1-1.7-0.5-3.4-1.1-4.9
						c-0.5-1.5-1.8-2-3.1-1.3c-2.3,1.2-4.4,2.7-6.6,4.1c-0.6,0.4-1.2,0.9-1.9,1.5c-0.1-0.9,0-1.8-0.2-2.5c-0.4-2.3-1.8-3.8-3.9-4.8
						c-2.5-1.3-5.3-1.5-8-1.3H4.5c-0.6,0-1.1,0.1-1.8,0.1v-0.1C3,45.7,3,45.6,3.2,45.5l0,0c4.5-2.7,6-6.5,4-11.4
						c-0.7-1.7-1.6-3.3-2.5-5l-0.2-0.3H8v-0.3c0-0.4,0.1-0.7,0.1-1c0-2.7,0-5.3,0-8v-4.9c0-0.6,0-1.8,0-1.8c0-1.4,1.9-1.2,2.8-1.1
						c2.6,0.1,5.2,0.1,7.8,0.3c3.4,0.4,5.6,3,6.7,6.2v0.1c0.3,0.8,0.7,1.2,1.4,1.3c2.1,0.4,3.7-0.3,4.7-2.2c1.2-2.1,1.3-4.4,1.4-6.8
						C33.3,9.6,33.2,8.5,33.3,7.4z M45.3,51.2l2.3,9l-2.1-1.7L45.3,51.2z M42.9,51.3l-1.5,6.5l-1.2-1.9L42.9,51.3z M80.9,32.6
						c-0.1-0.3-0.7-0.5-0.9-0.5l-0.3,0.1c-1.2,0.3-2.4,0.5-3.5,1L76,33.4c-2.7,1.3-2.8,2-0.5,4.7c0.1,0.1,0.2,0.2,0.3,0.3
						c1.3,1,2.9,1.1,4.4,0.5c1.3-0.5,1.7-1.7,1.8-3.1C81.5,34.6,81.3,33.6,80.9,32.6z M18.8,22.5c0.2-1.5-1.3-2.6-3.2-2.5h-0.1v5.1
						C18.1,25.4,18.7,24.6,18.8,22.5z M49.8,12.3l-0.2,2.3l-4.4,2.3L49.8,12.3z M45.3,7l1.1,2.8l-3.3,6.3L45.3,7z M42.3,10.3
						l-0.6,5.3l-1.4-4.2L42.3,10.3z"/>
				</g>
				<g>
					<path id="path-1_1_" class="st0" d="M33.3,7.4c0.3,0.8,0.6,1.8,1,2.6c0.8,1.5,1.5,3.1,2.4,4.4c3,4.2,7.9,5.4,12.6,3.1
						c3.1-1.5,5.3-4.1,7-7l0.1-0.2c0.2-0.3,0.3-0.6,0.6-1.2c0,1.1-0.1,1.9,0,2.8c0.5,3.6,2.6,5,6.2,4.2c5.3-1.2,10-3.6,14.7-6.2
						l0.6-0.3c0.4-0.3,0.9-0.5,1.3-0.7c-3.1,4.7-7.1,9-5.9,15.1c1.8-0.4,3.4-1.1,4.9-1.2c4.1-0.3,7.9,2.4,9.3,6.5
						c2.1,5.8,0,11.3-4.4,15.1c-2.3,2.1-5.4,2.3-8.4,1.5c-0.2-0.1-0.4-0.2-0.6-0.3L74,45.4v4.2c0,0.5,0,0.9,0,1.4v1.5
						c0,0.8,0.1,1.5-0.9,1.9c-0.1,0-0.2,0.3-0.2,0.3c0,1.3-0.9,1.4-1.9,1.4s-1.9,0-2.9,0c-0.8,0-1.2-0.4-1.3-1.3c0-1,0.3-2.1-0.4-3
						L66,51.5c-1.4-1.7-2.9-3.4-4.9-4.3c-2-0.8-5.6,1.1-6.8,3.4c-0.8,1.5-1,3.1-0.7,4.8c-0.7-1-1.3-1.9-2-2.9
						c-2.9-3.8-6.8-4.4-10.8-1.7c-3.5,2.3-6.2,5.5-8.7,8.8c-0.8,1-1.6,2.1-2.5,3.4c0-2.9,0.2-5.4-0.1-7.9c-0.1-1.7-0.5-3.4-1.1-4.9
						c-0.5-1.5-1.8-2-3.1-1.3c-2.3,1.2-4.4,2.7-6.6,4.1c-0.6,0.4-1.2,0.9-1.9,1.5c-0.1-0.9,0-1.8-0.2-2.5c-0.4-2.3-1.8-3.8-3.9-4.8
						c-2.5-1.3-5.3-1.5-8-1.3H4.5c-0.6,0-1.1,0.1-1.8,0.1v-0.1C3,45.7,3,45.6,3.2,45.5l0,0c4.5-2.7,6-6.5,4-11.4
						c-0.7-1.7-1.6-3.3-2.5-5l-0.2-0.3H8v-0.3c0-0.4,0.1-0.7,0.1-1c0-2.7,0-5.3,0-8v-4.9c0-0.6,0-1.8,0-1.8c0-1.4,1.9-1.2,2.8-1.1
						c2.6,0.1,5.2,0.1,7.8,0.3c3.4,0.4,5.6,3,6.7,6.2v0.1c0.3,0.8,0.7,1.2,1.4,1.3c2.1,0.4,3.7-0.3,4.7-2.2c1.2-2.1,1.3-4.4,1.4-6.8
						C33.3,9.6,33.2,8.5,33.3,7.4z M45.3,51.2l2.3,9l-2.1-1.7L45.3,51.2z M42.9,51.3l-1.5,6.5l-1.2-1.9L42.9,51.3z M80.9,32.6
						c-0.1-0.3-0.7-0.5-0.9-0.5l-0.3,0.1c-1.2,0.3-2.4,0.5-3.5,1L76,33.4c-2.7,1.3-2.8,2-0.5,4.7c0.1,0.1,0.2,0.2,0.3,0.3
						c1.3,1,2.9,1.1,4.4,0.5c1.3-0.5,1.7-1.7,1.8-3.1C81.5,34.6,81.3,33.6,80.9,32.6z M18.8,22.5c0.2-1.5-1.3-2.6-3.2-2.5h-0.1v5.1
						C18.1,25.4,18.7,24.6,18.8,22.5z M49.8,12.3l-0.2,2.3l-4.4,2.3L49.8,12.3z M45.3,7l1.1,2.8l-3.3,6.3L45.3,7z M42.3,10.3
						l-0.6,5.3l-1.4-4.2L42.3,10.3z"/>
				</g>
			</g>
			<g id="形状结合">
				<g>
					<path id="path-2" class="st0" d="M143.2,33.4c0,0.2,0.1,0.3,0.2,0.4v0.1v2.4l-0.1,0.4c-0.4,1.8-1,3.4-2.2,4.9
						c-3.5,4.3-9.3,5.1-13.9,2l-0.2-0.1c-0.1,0-0.1-0.1-0.2-0.1l-0.5-0.3V55h-5.9V25h5.8l0.1,1.8c0.3-0.2,0.8-0.3,1.1-0.5l0.3-0.2
						c1-0.4,2-0.9,3.1-1.2C136.6,23.6,142.3,27.6,143.2,33.4z M114.8,11.7l6.7,12H118c0,2,0,3.9,0,5.7v0.4c0,0.5,0,1,0,1.5v0.9
						c0,1.6,0,3.3-0.3,4.8c-1.2,5.7-6,9.4-11.8,9.6h-0.6c-2.7,0.1-5.3,0-7.7-1.3c-4.4-2.2-6.8-5.8-7-10.6c-0.1-1.9-0.1-3.9-0.1-5.8
						v-0.1V17.1h7v15.6v0.2c0,0.3,0,0.6,0.1,0.9c0.3,2.1,1.3,3.6,2.9,4.5c1,0.5,2.2,0.8,3.1,0.8c0.2,0,0.3,0,0.4,0c1,0,2,0,3-0.3
						c2.3-0.7,4.1-2.9,4.2-5.4c0.1-3.1,0-6.1,0-9.3v-0.7H108L114.8,11.7z M129.6,29.6c-2.3,0.4-3.3,1.7-3.3,3.9V35
						c0,0.9-0.1,1.8,0,2.7c0,0.4,0.3,0.9,0.5,1.3c1.5,1.4,3.3,1.9,5.2,1.4c2.9-0.8,4.7-3.7,4-6.5C135.4,31,132.5,29,129.6,29.6z"/>
				</g>
				<g>
					<path id="path-2_1_" class="st0" d="M143.2,33.4c0,0.2,0.1,0.3,0.2,0.4v0.1v2.4l-0.1,0.4c-0.4,1.8-1,3.4-2.2,4.9
						c-3.5,4.3-9.3,5.1-13.9,2l-0.2-0.1c-0.1,0-0.1-0.1-0.2-0.1l-0.5-0.3V55h-5.9V25h5.8l0.1,1.8c0.3-0.2,0.8-0.3,1.1-0.5l0.3-0.2
						c1-0.4,2-0.9,3.1-1.2C136.6,23.6,142.3,27.6,143.2,33.4z M114.8,11.7l6.7,12H118c0,2,0,3.9,0,5.7v0.4c0,0.5,0,1,0,1.5v0.9
						c0,1.6,0,3.3-0.3,4.8c-1.2,5.7-6,9.4-11.8,9.6h-0.6c-2.7,0.1-5.3,0-7.7-1.3c-4.4-2.2-6.8-5.8-7-10.6c-0.1-1.9-0.1-3.9-0.1-5.8
						v-0.1V17.1h7v15.6v0.2c0,0.3,0,0.6,0.1,0.9c0.3,2.1,1.3,3.6,2.9,4.5c1,0.5,2.2,0.8,3.1,0.8c0.2,0,0.3,0,0.4,0c1,0,2,0,3-0.3
						c2.3-0.7,4.1-2.9,4.2-5.4c0.1-3.1,0-6.1,0-9.3v-0.7H108L114.8,11.7z M129.6,29.6c-2.3,0.4-3.3,1.7-3.3,3.9V35
						c0,0.9-0.1,1.8,0,2.7c0,0.4,0.3,0.9,0.5,1.3c1.5,1.4,3.3,1.9,5.2,1.4c2.9-0.8,4.7-3.7,4-6.5C135.4,31,132.5,29,129.6,29.6z"/>
				</g>
			</g>
			<path id="形状_1_" class="st1" d="M78.5,23.7c2.5,0,4.6,0.9,6.3,2.8l0.1,0.1c1.7,1.9,2.5,4.4,2.5,7.3s-0.8,5.3-2.5,7.1
				c-1.7,1.9-3.8,2.9-6.3,2.9c-2.2,0-4.1-0.9-5.9-2.7v12.5h-4.4V24.2h4.4v2.1C74.4,24.5,76.4,23.7,78.5,23.7z M37.8,23.7
				c2.8,0,4.9,0.9,6.5,2.7c1.6,1.8,2.3,4.3,2.3,7.4v1H33.3c0.1,1.6,0.6,2.9,1.5,3.8c0.9,0.9,2,1.3,3.4,1.3c1.1,0,1.9-0.3,2.7-0.8
				c0.7-0.5,1.5-1.5,2.3-2.9l3.6,2.1c-0.6,1-1.2,1.8-1.8,2.5s-1.3,1.3-2,1.8c-0.8,0.4-1.5,0.8-2.3,1s-1.8,0.3-2.7,0.3
				c-2.8,0-5-0.9-6.7-2.8c-1.7-1.8-2.5-4.3-2.5-7.4c0-3,0.8-5.4,2.4-7.4C32.8,24.6,35,23.7,37.8,23.7z M57.2,23.7
				c2.8,0,4.9,0.9,6.5,2.7c1.6,1.8,2.3,4.3,2.3,7.4v1H52.6c0.1,1.6,0.6,2.9,1.5,3.8c0.9,0.9,2,1.3,3.4,1.3c1.1,0,1.9-0.3,2.7-0.8
				c0.7-0.5,1.5-1.5,2.3-2.9l3.6,2.1c-0.6,1-1.2,1.8-1.8,2.5c-0.6,0.7-1.3,1.3-2,1.8c-0.8,0.4-1.5,0.8-2.3,1s-1.8,0.3-2.7,0.3
				c-2.8,0-5-0.9-6.7-2.8c-1.7-1.8-2.5-4.3-2.5-7.4c0-3,0.8-5.4,2.4-7.4C52.2,24.6,54.4,23.7,57.2,23.7z M14,13c2,0,3.6,0.2,4.8,0.5
				c1.2,0.3,2.2,0.8,3,1.6s1.5,1.8,2,2.9c0.5,1.2,0.8,2.3,0.8,3.5c0,2.2-0.8,4-2.4,5.5c1.5,0.5,2.8,1.4,3.7,2.8l0.1,0.1
				c0.9,1.3,1.3,2.9,1.3,4.8c0,2.3-0.8,4.3-2.3,6l-0.1,0.1c-1,1-2.1,1.7-3.4,2.1c-1.3,0.4-3,0.6-5,0.6H9.6V13H14z M77.9,27.5
				c-1.6,0-2.9,0.6-3.9,1.7s-1.5,2.6-1.5,4.4c0,1.8,0.5,3.3,1.5,4.4c1,1.2,2.3,1.7,3.9,1.7c1.5,0,2.8-0.6,3.7-1.8
				c1-1.2,1.5-2.6,1.5-4.3c0-1.8-0.5-3.4-1.4-4.4C80.6,28.1,79.4,27.5,77.9,27.5z M16.2,29.8H14v9.1h2.8c2,0,3.5-0.4,4.4-1.3
				c1-0.8,1.5-2,1.5-3.4s-0.5-2.4-1.4-3.3C20.3,30.2,18.6,29.8,16.2,29.8z M37.9,27.5c-0.5,0-1,0.1-1.5,0.3
				c-0.4,0.2-0.9,0.4-1.3,0.7c-0.4,0.3-0.7,0.7-1,1.1s-0.5,0.9-0.6,1.5h8.7C41.6,28.7,40.2,27.5,37.9,27.5z M57.2,27.5
				c-0.5,0-1,0.1-1.5,0.3c-0.4,0.2-0.9,0.4-1.3,0.7c-0.4,0.3-0.7,0.7-1,1.1s-0.5,0.9-0.6,1.5h8.7C61,28.7,59.5,27.5,57.2,27.5z
				 M15.6,17.2H14V26h1.4c1.7,0,2.9-0.3,3.7-1.1c0.8-0.8,1.2-1.8,1.2-3.4c0-1.4-0.4-2.5-1.2-3.3C18.2,17.6,17.1,17.2,15.6,17.2z"/>
			
				<linearGradient id="Fill-25_1_" gradientUnits="userSpaceOnUse" x1="-511.3845" y1="280.3932" x2="-511.1842" y2="280.3932" gradientTransform="matrix(76.7442 0 0 -110.3564 39336.4961 30971.5781)">
				<stop  offset="0" style="stop-color:#7F8AAB"/>
				<stop  offset="1" style="stop-color:#BFC1D1"/>
			</linearGradient>
			<path id="Fill-25" class="st2" d="M90.7,17.3V29c0,0,0.8,12.1,15,10.3l0,0c-1.6,0.2-8,0.5-8-6.4l0,0V17.3H90.7z M105.7,39.2
				c0.3,0,0.3-0.1,0.3-0.1l0,0C105.9,39.2,105.9,39.2,105.7,39.2L105.7,39.2z"/>
		</g>
	</g>
</g>
</svg>
