<?xml version="1.0" encoding="utf-8"?>
<!-- Generator: Adobe Illustrator 24.0.1, SVG Export Plug-In . SVG Version: 6.00 Build 0)  -->
<svg version="1.1" id="图层_1" xmlns="http://www.w3.org/2000/svg" xmlns:xlink="http://www.w3.org/1999/xlink" x="0px" y="0px"
	 viewBox="0 0 150 70" style="enable-background:new 0 0 150 70;" xml:space="preserve">
<style type="text/css">
	.st0{fill:#FFFFFF;}
</style>
<title>资源 1</title>
<g id="图层_2_1_">
	<g id="图层_1-2">
		<path id="logo-上下" class="st0" d="M91.7,41.7l0.8,0.6l0.8,0.7c0.3,0.3,0.5,0.5,0.8,0.8l0.7,0.7l-1.2,1.4
			c-0.2-0.2-0.4-0.4-0.6-0.6l-0.7-0.7l-1.2,4.1h2.3c0,0.2-0.1,0.3-0.1,0.5c0,0.3-0.1,0.5-0.2,0.8S93,50.4,93,50.6L92.8,51
			c-0.1,0.3-0.2,0.6-0.3,0.9s-0.1,0.5-0.2,0.8s-0.1,0.4-0.1,0.5c-0.1,0.3-0.2,0.6-0.4,1c-0.1,0.3-0.4,0.5-0.6,0.6
			c-0.3,0.2-0.6,0.3-0.9,0.4c-0.4,0.1-0.8,0.1-1.2,0.2l-1.4,0.1l-0.3-1.6l1.6-0.1c0.2,0,0.5,0,0.6-0.1s0.3-0.1,0.5-0.2
			c0.1-0.1,0.2-0.2,0.3-0.3c0.1-0.1,0.1-0.3,0.2-0.5c0-0.1,0.1-0.3,0.1-0.5l0.2-0.6c0.1-0.2,0.1-0.5,0.2-0.6s0.1-0.3,0.1-0.5h-5.7
			l-1.2,6.2H83l1.2-6.2h-4.9l0.3-1.6h4.8l0.5-3h-3.6l0.3-1.6h3.6l0.4-2.4h1.6l-0.4,2.3h5c-0.5-0.5-1-0.9-1.4-1.3L91.7,41.7z
			 M63.6,42.8L63,46.5l1.2-0.8c0.4-0.3,0.8-0.6,1.2-0.8c0.4-0.3,0.7-0.5,1-0.8l0.8-0.7l1,1.4l-0.8,0.6l-1,0.7l-1,0.7
			c-0.3,0.3-0.7,0.5-1,0.7l0.8,0.5l0.8,0.5c0.3,0.2,0.5,0.3,0.7,0.5l0.6,0.5l-1,1.6c-0.2-0.2-0.5-0.4-0.7-0.6l-0.9-0.6l-1-0.9
			c-0.3-0.3-0.6-0.5-0.9-0.6c-0.1,0.7-0.1,1.3-0.2,1.9c-0.1,0.5-0.1,1,0,1.4s0.1,0.8,0.3,1.2c0.1,0.3,0.3,0.6,0.5,1
			c0.1,0.3,0.3,0.5,0.6,0.6c0.1,0.1,0.3,0.2,0.5,0.2s0.4-0.1,0.6-0.2c0.2-0.2,0.4-0.5,0.5-0.7c0.1-0.3,0.3-0.5,0.3-0.8
			s0.2-0.5,0.3-0.8l1.4,1c-0.1,0.3-0.3,0.6-0.4,0.8c-0.1,0.3-0.3,0.6-0.5,0.9c-0.3,0.5-0.6,1-1,1.3s-0.9,0.4-1.4,0.4
			s-0.9-0.1-1.3-0.3c-0.5-0.3-0.8-0.6-1.2-1.2c-0.3-0.5-0.5-0.9-0.6-1.4c-0.1-0.6-0.3-1.2-0.3-1.7c-0.1-0.8-0.1-1.5,0-2.3
			s0.2-1.7,0.4-2.8l0.4-2.3h-6.5l0.3-1.7L63.6,42.8z M134.5,47.2l-1,5.8c0.1,0.3,0.3,0.6,0.5,0.8s0.5,0.4,0.7,0.5
			c0.3,0.1,0.6,0.2,1,0.3c0.5,0.1,0.8,0.1,1.3,0.1c2.4,0.1,4.8,0,7.2-0.1l-0.6,1.6c-2.3,0.1-4.7,0.1-7,0.1c-0.5,0-1,0-1.5-0.1
			c-0.4-0.1-0.8-0.1-1.2-0.3c-0.3-0.1-0.6-0.3-0.8-0.5c-0.3-0.3-0.5-0.5-0.7-0.8l-1,1c-0.3,0.3-0.7,0.6-1,0.9l-0.8-1.3l1.2-1
			c0.4-0.3,0.8-0.7,1.2-1.2l0.7-4.1h-1.6l0.3-1.6L134.5,47.2z M113.5,41.5l1.3,0.5c-0.2,0.3-0.4,0.5-0.6,0.8h4.3l-0.2,1.2l-1.6,1.4
			h2.3l-0.7,4.1h-1.8c0.2,0.2,0.4,0.5,0.6,0.6c0.2,0.2,0.4,0.5,0.5,0.7l-1,1.2c-0.1-0.1-0.2-0.3-0.3-0.4s-0.2-0.3-0.3-0.5
			c-0.1-0.1-0.2-0.3-0.3-0.5l-0.3-0.3l0.9-0.8h-1l-0.4,2.3c0,0.3,0,0.5,0,0.5c0.1,0.1,0.3,0.1,0.5,0.1c0.5,0.1,1,0.1,1.4,0
			c0.4,0.1,0.8-0.3,0.8-0.6v-0.1c0-0.2,0.1-0.4,0.1-0.5c0.1-0.2,0.1-0.4,0.1-0.6l1.4,0.5c-0.1,0.3-0.1,0.5-0.2,0.6s-0.1,0.4-0.2,0.6
			c-0.1,0.3-0.2,0.5-0.3,0.7c-0.1,0.2-0.2,0.3-0.4,0.5s-0.3,0.2-0.6,0.3c-0.3,0.1-0.6,0.1-0.8,0.1c-0.7,0-1.4,0-2.1,0
			c-0.3,0-0.5-0.1-0.7-0.1c-0.2-0.1-0.3-0.1-0.5-0.3c-0.1-0.1-0.2-0.3-0.2-0.5c0-0.3,0-0.5,0-0.7l0.5-1.6c-0.5,0.6-1.1,1.2-1.8,1.7
			c-0.8,0.6-1.7,1.2-2.7,1.6c0.3,0.2,0.6,0.3,1,0.3c0.4,0.1,0.8,0.1,1.4,0.1c1.2,0,2.4,0,3.6,0s2.4-0.1,3.6-0.1l-0.6,1.6
			c-1.2,0.1-2.5,0.1-3.6,0.1s-2.4,0-3.6,0c-0.5,0-0.9-0.1-1.4-0.1c-0.4-0.1-0.8-0.1-1.2-0.3c-0.3-0.1-0.6-0.3-0.8-0.5
			c-0.3-0.3-0.5-0.6-0.7-0.9c-0.4,0.3-0.7,0.7-1.2,1c-0.4,0.3-0.8,0.6-1.2,0.9l-0.8-1.3c0.5-0.3,0.8-0.6,1.3-1
			c0.5-0.3,0.8-0.7,1.2-1.2l0.8-4.3h-1.7l0.3-1.5h3.2l-1,5.8c0.1,0.3,0.3,0.5,0.5,0.8c0.2,0.2,0.4,0.4,0.6,0.5l-0.6-1.4
			c0.6-0.3,1.2-0.5,1.6-0.8s0.8-0.5,1.2-0.8c0.3-0.3,0.6-0.5,0.9-0.8s0.5-0.6,0.7-0.9h-2.8l0.5-2.8h-0.1l0,0l0,0l-0.1,0.1l-0.6-1.4
			c0.8-0.6,1.5-1.2,2.1-1.9C112.4,43,113,42.3,113.5,41.5L113.5,41.5z M141.8,41.9c0.4,0.8,1,1.6,1.6,2.2c0.7,0.7,1.6,1.3,2.4,1.8
			l-1,1.5c-0.3-0.2-0.5-0.3-0.7-0.5l-0.6-0.5l-0.1,0.8h-2.2l-0.3,1.3h3.8l-0.3,1.4h-3.8l-0.5,2.8c-0.1,0.4-0.3,0.8-0.6,1.1
			c-0.5,0.3-1,0.4-1.5,0.4l-0.8,0.1l-0.2-1.5l0.8-0.1l0.5-0.1c0.1,0,0.2-0.1,0.3-0.1s0.1-0.1,0.1-0.2c0.1-0.1,0.1-0.2,0.1-0.3l0.2-2
			h-3.8l0.3-1.4h3.8l0.3-1.3h-2.4l0.1-0.7l-0.8,0.5l-0.8,0.5l-0.5-1.4c2.1-1,3.9-2.4,5.4-4.1h1.2V41.9z M142,50.1
			c0.1,0.1,0.3,0.4,0.5,0.6c0.2,0.3,0.4,0.5,0.6,0.7l0.5,0.7l0.4,0.6l-1.2,1.2c-0.1-0.2-0.2-0.4-0.3-0.6c-0.2-0.3-0.3-0.5-0.5-0.8
			l-0.6-0.8l-0.5-0.6L142,50.1z M136.9,50.1l0.9,0.8c-0.5,0.5-1,1-1.5,1.6c-0.5,0.5-1,1-1.5,1.4l-0.8-1c0.5-0.4,1-0.8,1.5-1.4
			C136,51.1,136.4,50.5,136.9,50.1L136.9,50.1z M90.4,45.8h-3.8l-0.5,3h3.6L90.4,45.8z M113.8,46.8h-1.9l-0.3,1.5h1.8
			C113.5,47.8,113.7,47.3,113.8,46.8z M117.3,46.8h-2.1c-0.1,0.3-0.1,0.5-0.2,0.8s-0.1,0.5-0.2,0.7h2.3L117.3,46.8z M108.2,42.1
			c0.1,0.2,0.3,0.4,0.5,0.6l0.5,0.8c0.1,0.3,0.3,0.5,0.5,0.8l0.4,0.7l-1.4,1.2c-0.1-0.3-0.2-0.5-0.3-0.7c-0.1-0.3-0.3-0.6-0.5-0.8
			c-0.1-0.3-0.3-0.6-0.5-0.8c-0.1-0.3-0.3-0.5-0.5-0.6L108.2,42.1z M134.1,42.2c0.1,0.1,0.3,0.3,0.4,0.6l0.5,0.7
			c0.1,0.3,0.3,0.5,0.5,0.8l0.4,0.7l-1.4,1c-0.1-0.3-0.2-0.5-0.3-0.7l-0.5-0.8c-0.1-0.3-0.3-0.5-0.5-0.8c-0.1-0.2-0.3-0.5-0.5-0.6
			L134.1,42.2z M140.9,43.4c-0.8,1-1.7,1.8-2.8,2.6h4.6c-0.4-0.4-0.8-0.8-1.2-1.2C141.4,44.3,141.1,43.8,140.9,43.4L140.9,43.4z
			 M116.2,44.3h-3c-0.2,0.3-0.4,0.5-0.6,0.6l-0.6,0.6h2.9L116.2,44.3z M150,13.7c0,0-1,1-2.3,2.4l-0.5,0.5c-2.5,2.7-5.3,5.1-8.2,7.3
			c1.8,1.8,5.9,8.3,6.3,10.3h-6.1c0,0-0.1-0.3-0.3-0.8l-0.1-0.3c-2.6-4.8-7.1-8.1-12.3-9.3c4.7-1.2,13.1-4.7,17.5-10.1L150,13.7
			L150,13.7z M64.5,18.3c2.4,0,6.3,0.5,6.8,5.5c0.5,5.6-4.8,10-10.5,10.2c-5.8,0.2-8.7-2.6-7.2-8.8s8.6-6.8,10.1-6.9L64.5,18.3
			L64.5,18.3z M101.8,23.9l-2.3,9.9h-3.9c-0.3,0-0.6-0.3-0.6-0.6c0-0.1,0-0.1,0-0.1l0,0l2.1-9.1h4.7V23.9z M34.4,23.9l-2.2,9.9h-4
			c-0.3,0-0.6-0.3-0.6-0.6c0-0.1,0-0.1,0-0.1l0,0l2.1-9.1h4.7V23.9z M38.4,18.3h8.2c2.7,0,4.9,2.2,4.9,4.9c0,0.3-0.1,0.7-0.1,1
			l-2.1,9.4h-4.1c-0.3,0-0.6-0.3-0.6-0.6c0-0.1,0-0.1,0-0.1l2.3-9.3c0.1-0.5-0.2-1-0.7-1.1c-0.1,0-0.1,0-0.2,0h-3.6l-2.6,11.2h-4.1
			c-0.3,0-0.6-0.3-0.6-0.6c0-0.1,0-0.1,0-0.1L38.4,18.3L38.4,18.3z M95.6,18.3l-3.4,15.5h-3.9c-0.3,0-0.6-0.3-0.6-0.6
			c0-0.1,0-0.1,0-0.1l0,0l3.2-14.6L95.6,18.3z M126.4,18.3L123,33.8h-4c-0.3,0-0.6-0.3-0.6-0.6c0-0.1,0-0.1,0-0.1l0,0l3.3-14.7
			L126.4,18.3z M81.8,18.3h5.7c0.4,0,0.7,0.3,0.7,0.7c0,0.1,0,0.1,0,0.1l0,0L87.3,23h-6c-2.2,0-4.1,1.6-4.4,3.8
			c-0.1,1.1,0.7,2.1,1.8,2.3c0.1,0,0.2,0,0.3,0h6c0.4,0,0.7,0.3,0.7,0.7c0,0.1,0,0.1,0,0.1l0,0l-0.8,3.8h-6.3
			c-3.4,0.1-6.3-2.6-6.5-6c0-0.3,0-0.6,0-0.9C72.7,22,76.9,18.3,81.8,18.3z M113,18.3h5.7c0.4,0,0.7,0.3,0.7,0.7c0,0.1,0,0.1,0,0.1
			l0,0l-0.8,3.8h-5.9c-2.2,0-4.1,1.6-4.4,3.8c-0.1,1.1,0.7,2.1,1.8,2.3c0.1,0,0.2,0,0.3,0h6c0.4,0,0.7,0.3,0.7,0.7
			c0,0.1,0,0.1,0,0.1l0,0l-0.8,3.8H110c-3.4,0.1-6.3-2.6-6.5-6c0-0.3,0-0.6,0-0.9C104,22,108.1,18.3,113,18.3L113,18.3z M31.1,13.4
			c0.5,0,0.8,0.4,0.7,0.8c0,0.1,0,0.1,0,0.1l-0.9,3.6H15.4c-1,0-1.9,0.8-2.1,1.7c-0.1,0.6,0.3,1.3,1,1.4c0.1,0,0.1,0,0.1,0l8.3,0.3
			c2.4,0.1,4.3,2,4.3,4.5c0,0.5-0.1,1-0.3,1.5L26,29.1c-1.1,2.8-3.8,4.7-6.8,4.7l-18-0.1c-0.7,0-1.2-0.5-1.2-1.1
			c0-0.1,0-0.3,0.1-0.5l1-2.8L18,29.2c1.1,0,2.1-0.8,2.3-1.9c0.1-0.8-0.4-1.5-1.1-1.6c-0.1,0-0.2,0-0.3,0h-7.8
			c-2.6-0.1-4.6-2.1-4.6-4.7c0-0.5,0.1-1,0.3-1.5L7,18.8c1-3,3.8-5.1,7-5.2L31.1,13.4z M62.9,22.3c-2.5,0.2-4.4,2.2-4.5,4.7
			c-0.3,1.6,0.8,3,2.3,3.2c0.2,0.1,0.5,0.1,0.6,0c2.8-0.3,4.8-2.7,4.5-5.4v-0.1C65.9,23.5,64.8,22.3,62.9,22.3L62.9,22.3z
			 M101.9,18.3c0.5,0,0.8,0.4,0.8,0.8c0,0.1,0,0.1,0,0.2l0,0l-0.7,3.2h-4.8l1-4.3L101.9,18.3L101.9,18.3z M34.8,18.3
			c0.5,0,0.8,0.4,0.8,0.8c0,0.1,0,0.1,0,0.2l0,0l-0.7,3.2h-4.8l1-4.3L34.8,18.3L34.8,18.3z"/>
	</g>
</g>
</svg>
