<?xml version="1.0" encoding="utf-8"?>
<!-- Generator: Adobe Illustrator 24.0.1, SVG Export Plug-In . SVG Version: 6.00 Build 0)  -->
<svg version="1.1" id="图层_1" xmlns="http://www.w3.org/2000/svg" xmlns:xlink="http://www.w3.org/1999/xlink" x="0px" y="0px"
	 viewBox="0 0 140 70" style="enable-background:new 0 0 140 70;" xml:space="preserve">
<style type="text/css">
	.st0{fill:#FFFFFF;}
</style>
<title>资源 1</title>
<g id="图层_2_1_">
	<g id="图层_1-2">
		<g>
			<path class="st0" d="M69.7,42.1c0.7-0.3,1.5,0.1,1.8,0.8l0,0c0.1,0.3,0.1,0.7,0,1.1c-1.1,2.1-2.9,3.7-5.1,4.5
				c-2.3,0.9-5,0.9-7.3-0.1c-2.5-1-4.4-3-5.3-5.5c-0.9-2.4-0.9-5.1,0.2-7.5c1-2.4,3-4.3,5.4-5.1c2.5-1,5.2-0.9,7.6,0.2
				c2.3,1,4.1,2.9,5,5.3c0.2,0.4,0.2,0.8,0,1.2c-0.2,0.3-0.4,0.5-0.8,0.7L57,43.2c1.8,2.8,5.3,3.9,8.4,2.7c1.5-0.6,2.8-1.7,3.6-3.2
				C69.2,42.4,69.4,42.2,69.7,42.1z M67.9,35.9c0.4-0.2,0.5-0.5,0.4-0.9c0,0,0-0.1-0.1-0.2c-0.7-0.8-1.5-1.4-2.5-1.8
				c-3.5-1.5-7.6,0-9.2,3.6c-0.5,1-0.6,2-0.6,3.1c0,0.4,0.4,0.7,0.8,0.6c0,0,0.1,0,0.2,0L67.9,35.9z"/>
			<path class="st0" d="M48.4,42.1c0.7-0.3,1.5,0.1,1.8,0.8c0.1,0.3,0.1,0.7,0,1.1c-1.1,2.1-2.9,3.7-5.1,4.5c-2.3,0.9-5,0.9-7.3-0.1
				c-2.5-1-4.4-3-5.3-5.5c-0.9-2.4-0.9-5.1,0.2-7.5c1-2.4,3-4.3,5.4-5.1c2.5-1,5.2-0.9,7.6,0.2c2.3,1,4.1,2.9,5,5.3
				c0.2,0.4,0.1,0.8,0,1.2c-0.2,0.3-0.4,0.5-0.8,0.7l-14.1,5.6c1.8,2.8,5.3,3.9,8.4,2.7c1.5-0.6,2.8-1.7,3.6-3.2
				C47.8,42.4,48.1,42.2,48.4,42.1z M46.6,35.9c0.4-0.1,0.5-0.5,0.4-0.9c0,0,0-0.1-0.1-0.2c-0.7-0.8-1.5-1.4-2.5-1.8
				c-3.5-1.5-7.6,0-9.2,3.6c-0.4,1-0.6,2-0.6,3.1c0,0.4,0.4,0.7,0.8,0.6c0.1,0,0.1,0,0.2,0L46.6,35.9z"/>
			<path class="st0" d="M83.2,46.4c-0.3-0.3-0.6-0.4-1-0.4c-2.8,0-4.2-1.4-4.2-4.2V32h2.8c0.8,0,1.4-0.6,1.4-1.4
				c0-0.4-0.2-0.7-0.4-1c-0.3-0.3-0.6-0.4-1-0.4H78v-7c0-0.4-0.1-0.7-0.4-1c-0.5-0.5-1.4-0.5-2,0c-0.3,0.3-0.4,0.6-0.4,1v7l0,0V32
				l0,0v9.8c0,4.6,2.3,7,7,7c0.8,0,1.4-0.6,1.4-1.4C83.6,47.1,83.4,46.7,83.2,46.4L83.2,46.4z"/>
			<path class="st0" d="M138.6,46.4c-0.3-0.3-0.6-0.4-1-0.4c-2.8,0-4.2-1.4-4.2-4.2V32h2.8c0.8,0,1.4-0.6,1.4-1.4
				c0-0.4-0.2-0.7-0.4-1c-0.3-0.3-0.6-0.4-1-0.4h-2.8v-7c0-0.4-0.1-0.7-0.4-1c-0.5-0.5-1.4-0.5-2,0c-0.3,0.3-0.4,0.6-0.4,1v7l0,0V32
				l0,0v9.8c0,4.6,2.3,7,7,7c0.8,0,1.4-0.6,1.4-1.4C139,47.1,138.9,46.7,138.6,46.4L138.6,46.4z"/>
			<path class="st0" d="M88.2,32.6L88.2,32.6c3.8-3.9,10-3.9,13.8-0.1l0,0c1.8,1.8,2.9,4.3,2.8,6.9c0,2.6-1,5.1-2.8,6.9
				c-3.8,3.8-9.9,3.8-13.7,0c-1.8-1.8-2.9-4.3-2.8-6.9V22.3c0-0.4,0.1-0.7,0.4-1c0.5-0.5,1.4-0.5,2,0l0,0c0.3,0.3,0.4,0.6,0.4,1
				L88.2,32.6L88.2,32.6z M95.1,46.3c3.8,0,6.9-3.1,6.9-6.9l0,0c0.1-3.8-2.9-7-6.8-7.1c-3.8-0.1-7,2.9-7.1,6.8c0,0.1,0,0.2,0,0.3
				C88.1,43.2,91.2,46.3,95.1,46.3L95.1,46.3z"/>
			<path class="st0" d="M109.6,33.4c1.6-2.7,4.4-4.4,7.6-4.7v-1.8c-0.5-0.3-0.9-0.9-0.8-1.5c0.1-0.8,0.8-1.4,1.6-1.3
				c0.8,0.1,1.3,0.7,1.3,1.5c0,0.6-0.3,1.1-0.8,1.3v1.8c3.1,0.2,5.9,2,7.6,4.7c2.9,2,3.6,6,1.6,8.9c-0.4,0.5-0.8,1-1.3,1.4
				c-0.8,1.8-0.1,3.3,0.6,4.3c0.2,0.3,0.1,0.7-0.2,0.9c-0.1,0.1-0.3,0.1-0.4,0.1c-1.6,0-3.1-0.4-4.6-1.1c-1.2,0.5-2.5,0.8-3.9,0.8
				c-3.3,0-6.3-1.7-8-4.5l0,0c-0.1-0.2-0.3-0.4-0.3-0.6l0,0v-0.1c-2.8-2.1-3.3-6.1-1.2-8.9C108.5,34.3,109,33.8,109.6,33.4
				L109.6,33.4z M113,43.7h9.5c2.8-0.1,4.9-2.4,4.9-5.1c-0.1-2.7-2.2-4.8-4.9-4.9H113c-2.8,0.1-4.9,2.4-4.9,5.1
				C108.2,41.5,110.3,43.6,113,43.7z"/>
			<circle class="st0" cx="114" cy="38.8" r="1.5"/>
			<circle class="st0" cx="121" cy="38.8" r="1.5"/>
			<path class="st0" d="M13.4,42.2L4.2,29.9c-0.1-0.2-0.3-0.3-0.5-0.2c-0.1,0-0.2,0.2-0.2,0.3v17.5c0,0.4-0.1,0.7-0.4,1
				S2.5,49,2.1,49s-0.8-0.2-1-0.5c-0.3-0.3-0.4-0.6-0.4-1V22.8c0-0.4,0.1-0.7,0.4-1s0.6-0.5,1-0.5c0.5,0,1,0.3,1.2,0.7l11.2,16.5
				L25.7,22c0.2-0.5,0.7-0.8,1.2-0.7c0.3,0,0.7,0.1,1,0.4s0.5,0.6,0.4,1v24.9c0,0.4-0.1,0.7-0.4,1c-0.5,0.5-1.4,0.6-2,0l0,0
				c-0.3-0.3-0.4-0.6-0.4-1V30.1c0-0.2-0.1-0.3-0.3-0.4c-0.1,0-0.3,0.1-0.3,0.2l-9.2,12.5c-0.2,0.5-0.7,0.7-1.2,0.7
				C14.1,43.1,13.6,42.7,13.4,42.2z"/>
		</g>
	</g>
</g>
</svg>
