<svg viewBox="0 0 120 108">
    <defs>
        <linearGradient x1="50%" y1="0%" x2="50%" y2="99.999%" id="prefix__a">
            <stop offset="0%" />
            <stop offset="100%" />
        </linearGradient>
        <linearGradient x1="50%" y1=".001%" x2="50%" y2="100.001%" id="prefix__b">
            <stop offset="0%" />
            <stop offset="100%" />
        </linearGradient>
        <linearGradient x1="50%" y1="81.385%" x2="50%" y2="0%" id="prefix__c">
            <stop offset="0%" />
            <stop offset="100%" />
        </linearGradient>
        <linearGradient x1="75.226%" y1="8.867%" x2="39.064%" y2="100%" id="prefix__d">
            <stop offset="0%" />
            <stop offset="100%" />
        </linearGradient>
        <linearGradient x1="87.303%" y1="47.797%" x2="39.064%" y2="53.744%" id="prefix__e">
            <stop offset="0%" />
            <stop offset="100%" />
        </linearGradient>
    </defs>
    <g transform="translate(0 .579)" fill="none">
        <path fill="#6A9CD8" opacity=".01" d="M0 1.053h118.947v107.368H0z" />
        <path
            d="M94.737 8.218v53.887H25.263c.116-26.798.223-30.919.34-57.726h15.56c.029 4.78.029 6.857 0 6.934v.01s.02-.01.029-.02v-.029a2.528 2.528 0 012.522-2.546 2.528 2.528 0 012.522 2.546v1.509H57.35V0h9.972v18.425c-.01.039-.01.068-.01.108v6.2c0 .91.728 1.645 1.63 1.645.893 0 1.621-.733 1.621-1.645v-4.83c3.133-.01 5.403-.02 6.906-.02 1.503 0 2.241.01 2.309.02.242-.03 0-3.743 0-3.743h4.744v4.398a1.2 1.2 0 001.193 1.205 1.2 1.2 0 001.194-1.205V8.216h7.827v.002z"
            fill="url(#prefix__a)" />
        <ellipse fill="url(#prefix__b)" cx="60.526" cy="80" rx="59.474" ry="28.421" />
        <ellipse fill="url(#prefix__c)" cx="62.579" cy="74.456" rx="27.213" ry="6" />
        <g opacity=".6" fill="#7AA1F8">
            <path
                d="M31.207 4.808a1.878 1.878 0 11.002-3.752 1.878 1.878 0 01-.002 3.752zm0-2.71a.834.834 0 000 1.666.834.834 0 000-1.666z" />
            <circle cx="1.355" cy="1.355" r="1.355" transform="translate(29.514 30.787)" />
            <circle cx="2.839" cy="2.839" r="2.839" transform="translate(90.298 46.35)" />
            <circle cx="1.12" cy="1.12" r="1.12" transform="translate(79.484 18.806)" />
            <circle cx=".965" cy=".965" r="1" transform="translate(95.78 10.093)" />
            <circle cx="1.334" cy="1.334" r="1.334" transform="translate(105.734 31.66)" />
            <circle cx="1.262" cy="1.262" r="1.262" transform="translate(86.769 69.518)" />
            <path
                d="M70.28 6.162a1.878 1.878 0 111.877-1.877 1.879 1.879 0 01-1.877 1.877zm0-2.709a.834.834 0 000 1.666.834.834 0 000-1.666zM51.564 79.916a1.878 1.878 0 111.877-1.877 1.879 1.879 0 01-1.877 1.877zm0-2.71a.834.834 0 000 1.666.834.834 0 000-1.666zM17.954 48.848h-3.622a.572.572 0 010-1.144h3.622a.572.572 0 010 1.144z" />
            <path
                d="M15.548 50.064v-3.576a.594.594 0 111.189 0v3.576a.594.594 0 11-1.189 0zM17.967 24.763h-2.353c-.204 0-.37-.224-.37-.5s.166-.5.37-.5h2.353c.204 0 .37.224.37.5s-.166.5-.37.5z" />
            <path
                d="M16.416 25.281V22.96c0-.213.223-.387.5-.387.275 0 .5.172.5.387v2.321c0 .213-.222.387-.5.387-.275 0-.5-.172-.5-.387zM48.761 17.41l-3.224-4.681.546-1.038c.801.042 1.603.086 2.404.127l.274 5.593zM47.567 18.12l-4.47-.824c-.091-.298-.185-.597-.278-.895l1.43-1.288c1.108 1.002 2.213 2.005 3.318 3.007zM49.5 16.67l.336-4.012.765-.324 1.26 1.149c-.786 1.062-1.574 2.123-2.36 3.187z" />
        </g>
        <g transform="translate(29.79 24.421)">
            <path
                d="M52.173 22.023c-.333 11.525-9.782 20.766-21.39 20.766-8.656 0-16.112-5.138-19.482-12.53 5.056 1.266 12.612 1.11 20.842-.489 8.504-1.653 15.764-4.467 19.92-7.663zM30.783 0c9.046 0 16.781 5.612 19.912 13.544.032.163.092.32.175.463a21.12 21.12 0 011.065 4.13c-.836.989-2.298 2.124-4.365 3.267-4.022 2.224-9.732 4.167-16.006 5.387-6.275 1.22-12.298 1.557-16.86 1.001-1.962-.239-3.53-.631-4.661-1.107a21.445 21.445 0 01-.66-5.29C9.384 9.579 18.965 0 30.784 0z"
                fill="url(#prefix__d)" />
            <path
                d="M4.527 16.908C2.27 18.378.982 20.135.982 22.131c0 6.21 12.982 10.415 29.018 10.415s29.018-4.204 29.018-10.415c0-1.83-1.09-3.466-3.01-4.856a1.505 1.505 0 00-1.765 2.439c1.213.878 1.765 1.707 1.765 2.417 0 1.51-2.458 3.392-7.017 4.868-4.966 1.608-11.743 2.537-18.991 2.537-7.248 0-14.025-.929-18.99-2.537-4.56-1.476-7.018-3.358-7.018-4.868 0-.791.689-1.73 2.178-2.7a1.505 1.505 0 10-1.643-2.523z"
                fill="url(#prefix__e)" transform="rotate(-11 30 24.605)" />
            <circle fill="#E2EBFF" cx="37.91" cy="8.15" r="3.056" />
            <circle fill="#E2EBFF" cx="17.534" cy="15.282" r="3.056" />
            <circle fill="#E2EBFF" cx="24.156" cy="23.942" r="1.528" />
        </g>
    </g>
</svg>