<svg viewBox="0 0 120 109">
    <defs>
        <linearGradient x1="50%" y1="0%" x2="50%" y2="99.999%" id="prefix__a">
            <stop offset="0%" />
            <stop offset="100%" />
        </linearGradient>
        <linearGradient x1="50%" y1=".001%" x2="50%" y2="100.001%" id="prefix__b">
            <stop offset="0%" />
            <stop offset="100%" />
        </linearGradient>
        <linearGradient x1="50%" y1="81.385%" x2="50%" y2="0%" id="prefix__c">
            <stop offset="0%" />
            <stop offset="100%" />
        </linearGradient>
        <linearGradient x1="0%" y1="60.286%" x2="100%" y2="60.286%" id="prefix__d">
            <stop offset="0%" />
            <stop offset="100%" />
        </linearGradient>
        <linearGradient x1="50%" y1="0%" x2="50%" y2="100%" id="prefix__e">
            <stop offset="0%" />
            <stop offset="100%" />
        </linearGradient>
        <linearGradient x1="41.109%" y1="0%" x2="41.109%" y2="100%" id="prefix__f">
            <stop offset="0%" />
            <stop offset="100%" />
        </linearGradient>
        <linearGradient x1="50%" y1="0%" x2="50%" y2="100%" id="prefix__g">
            <stop offset="0%" />
            <stop offset="100%" />
        </linearGradient>
        <linearGradient x1="5.17%" y1="8.321%" x2="5.17%" y2="84.626%" id="prefix__h">
            <stop offset="0%" />
            <stop offset="100%" />
        </linearGradient>
        <linearGradient x1="0%" y1="50%" x2="99.998%" y2="50%" id="prefix__i">
            <stop offset="0%" />
            <stop offset="100%" />
        </linearGradient>
        <linearGradient x1="100%" y1="86.072%" x2="0%" y2="13.928%" id="prefix__j">
            <stop offset="0%" />
            <stop offset="100%" />
        </linearGradient>
    </defs>
    <g fill="none">
        <g transform="translate(0 .579)">
            <path fill="#6A9CD8" opacity=".01" d="M0 1.053h118.947v107.368H0z" />
            <path
                d="M94.737 8.218v53.887H25.263c.116-26.798.223-30.919.34-57.726h15.56c.029 4.78.029 6.857 0 6.934v.01s.02-.01.029-.02v-.029a2.528 2.528 0 012.522-2.546 2.528 2.528 0 012.522 2.546v1.509H57.35V0h9.972v18.425c-.01.039-.01.068-.01.108v6.2c0 .91.728 1.645 1.63 1.645.893 0 1.621-.733 1.621-1.645v-4.83c3.133-.01 5.403-.02 6.906-.02 1.503 0 2.241.01 2.309.02.242-.03 0-3.743 0-3.743h4.744v4.398a1.2 1.2 0 001.193 1.205 1.2 1.2 0 001.194-1.205V8.216h7.827v.002z"
                fill="url(#prefix__a)" />
            <ellipse fill="url(#prefix__b)" cx="60.526" cy="80" rx="59.474" ry="28.421" />
            <ellipse fill="url(#prefix__c)" cx="60.579" cy="74.456" rx="27.213" ry="6" />
            <g opacity=".6" fill="#7AA1F8">
                <path
                    d="M31.207 4.808a1.878 1.878 0 11.002-3.752 1.878 1.878 0 01-.002 3.752zm0-2.71a.834.834 0 000 1.666.834.834 0 000-1.666z" />
                <circle cx="1.355" cy="1.355" r="1.355" transform="translate(29.514 30.787)" />
                <circle cx="2.839" cy="2.839" r="2.839" transform="translate(90.298 46.35)" />
                <circle cx="1.12" cy="1.12" r="1.12" transform="translate(79.484 18.806)" />
                <circle cx=".965" cy=".965" r="1" transform="translate(95.78 10.093)" />
                <circle cx="1.334" cy="1.334" r="1.334" transform="translate(105.734 31.66)" />
                <circle cx="1.262" cy="1.262" r="1.262" transform="translate(86.769 69.518)" />
                <path
                    d="M70.28 6.162a1.878 1.878 0 111.877-1.877 1.879 1.879 0 01-1.877 1.877zm0-2.709a.834.834 0 000 1.666.834.834 0 000-1.666zM51.564 79.916a1.878 1.878 0 111.877-1.877 1.879 1.879 0 01-1.877 1.877zm0-2.71a.834.834 0 000 1.666.834.834 0 000-1.666zM17.954 48.848h-3.622a.572.572 0 010-1.144h3.622a.572.572 0 010 1.144z" />
                <path
                    d="M15.548 50.064v-3.576a.594.594 0 111.189 0v3.576a.594.594 0 11-1.189 0zM17.967 24.763h-2.353c-.204 0-.37-.224-.37-.5s.166-.5.37-.5h2.353c.204 0 .37.224.37.5s-.166.5-.37.5z" />
                <path
                    d="M16.416 25.281V22.96c0-.213.223-.387.5-.387.275 0 .5.172.5.387v2.321c0 .213-.222.387-.5.387-.275 0-.5-.172-.5-.387zM48.761 17.41l-3.224-4.681.546-1.038c.801.042 1.603.086 2.404.127l.274 5.593zM47.567 18.12l-4.47-.824c-.091-.298-.185-.597-.278-.895l1.43-1.288c1.108 1.002 2.213 2.005 3.318 3.007zM49.5 16.67l.336-4.012.765-.324 1.26 1.149c-.786 1.062-1.574 2.123-2.36 3.187z" />
            </g>
        </g>
        <path
            d="M20.813 42.297h-.635c-.874 0-1.59-.663-1.59-1.473V29.038c0-.81.716-1.474 1.59-1.474h.635c.874 0 1.589.663 1.589 1.474v11.786c0 .81-.715 1.473-1.589 1.473"
            fill="url(#prefix__d)" transform="translate(38 25)" />
        <path
            d="M38.035 45.624H2.002C.896 45.624 0 44.773 0 43.723s.896-1.901 2.002-1.901h36.033c1.106 0 2.002.851 2.002 1.9 0 1.05-.896 1.902-2.002 1.902z"
            fill="url(#prefix__e)" transform="translate(38 25)" />
        <path
            d="M14.713 46.574a.905.905 0 01-.89-.914v-4.35c0-.503.4-.914.89-.914h10.134c.49 0 .891.411.891.914v4.35a.906.906 0 01-.89.914H14.712z"
            fill="url(#prefix__f)" transform="translate(38 25)" />
        <path stroke="#E4F0FF" d="M53.237 66.452v4.291M62.145 66.452v4.291" />
        <path fill="url(#prefix__g)" d="M2.86 35.168h33.841V0H2.86z" transform="translate(38 25)" />
        <path fill="#779FF8" d="M40.86 60.168h33.841V25H40.86z" />
        <g fill="url(#prefix__h)" transform="translate(38 25)">
            <path
                d="M1.656 35.168c-.91 0-1.656-.594-1.656-1.321v-7.813c0-.726.745-1.321 1.656-1.321h36.725c.91 0 1.656.595 1.656 1.321v7.813c0 .727-.745 1.321-1.656 1.321H1.656zM1.656 10.455C.746 10.455 0 9.861 0 9.134V1.322C0 .595.745 0 1.656 0h36.725c.91 0 1.656.595 1.656 1.322v7.812c0 .727-.745 1.321-1.656 1.321H1.656zM1.656 22.812C.746 22.812 0 22.217 0 21.49v-7.812c0-.727.745-1.322 1.656-1.322h36.725c.91 0 1.656.595 1.656 1.322v7.812c0 .727-.745 1.322-1.656 1.322H1.656z" />
        </g>
        <g fill="url(#prefix__i)" transform="translate(38 25)">
            <path
                d="M1.656 35.168c-.91 0-1.656-.594-1.656-1.321v-7.813c0-.726.745-1.321 1.656-1.321h36.725c.91 0 1.656.595 1.656 1.321v7.813c0 .727-.745 1.321-1.656 1.321H1.656zM1.656 10.455C.746 10.455 0 9.861 0 9.134V1.322C0 .595.745 0 1.656 0h36.725c.91 0 1.656.595 1.656 1.322v7.812c0 .727-.745 1.321-1.656 1.321H1.656zM1.656 22.812C.746 22.812 0 22.217 0 21.49v-7.812c0-.727.745-1.322 1.656-1.322h36.725c.91 0 1.656.595 1.656 1.322v7.812c0 .727-.745 1.322-1.656 1.322H1.656z" />
        </g>
        <path
            d="M43.243 28.802c.896 0 1.43.532 1.43.95 0 .841-.473 1.362-1.276 1.42l-.154.006c-.42 0-.953-.532-.953-1.426 0-.418.533-.95.953-.95zm4.29 0c.42 0 .953.532.953.95 0 .894-.534 1.426-.953 1.426-.897 0-1.43-.532-1.43-1.426 0-.418.533-.95 1.43-.95zm3.336 0c.42 0 .953.532.953.95 0 .838-.468 1.358-.873 1.42l-.08.006c-.896 0-1.43-.532-1.43-1.426 0-.418.534-.95 1.43-.95z"
            fill="#F6F8FF" />
        <path
            d="M43.243 53.515c.896 0 1.43.532 1.43.95 0 .894-.534 1.426-1.43 1.426-.42 0-.953-.532-.953-1.426 0-.418.533-.95.953-.95zm4.29 0c.42 0 .953.532.953.95 0 .838-.47 1.358-.873 1.42l-.08.006c-.897 0-1.43-.532-1.43-1.426 0-.418.533-.95 1.43-.95zm3.336 0c.42 0 .953.532.953.95 0 .838-.468 1.358-.873 1.42l-.08.006c-.896 0-1.43-.532-1.43-1.426 0-.418.534-.95 1.43-.95zM73.748 55.891H63.262c-.306 0-.477-.177-.477-.475V53.99c0-.298.17-.475.477-.475h10.486c.306 0 .476.177.476.475v1.426c0 .298-.17.475-.476.475M62.624 31.178a.322.322 0 01-.316-.327V29.13c0-.181.142-.328.316-.328h10.808c.174 0 .316.147.316.328v1.72a.322.322 0 01-.316.328H62.624zM43.481 44.01a1.19 1.19 0 01-1.191-1.188 1.19 1.19 0 011.191-1.188 1.19 1.19 0 011.192 1.188 1.19 1.19 0 01-1.192 1.188M47.533 41.634c.42 0 .953.532.953.95 0 .838-.47 1.358-.873 1.42l-.08.006c-.897 0-1.43-.532-1.43-1.426 0-.418.533-.95 1.43-.95zm3.336 0c.42 0 .953.532.953.95 0 .838-.468 1.358-.873 1.42l-.08.006c-.896 0-1.43-.532-1.43-1.426 0-.418.534-.95 1.43-.95zM73.366 44.01H62.69a.389.389 0 01-.382-.396v-1.585c0-.218.171-.395.382-.395h10.676c.211 0 .382.177.382.395v1.585c0 .219-.17.396-.382.396"
            fill="#E4F0FF" />
        <path
            d="M12.213 2.004l7.78 13.049a1.917 1.917 0 01-1.646 2.898H2.787a1.917 1.917 0 01-1.646-2.898l7.78-13.05a1.917 1.917 0 013.292 0z"
            fill="url(#prefix__j)" transform="translate(67.551 54.94)" />
        <path
            d="M78.119 68.014c.664 0 1.174.53 1.174 1.17 0 .64-.51 1.171-1.174 1.171-.665 0-1.175-.53-1.175-1.17 0-.663.532-1.171 1.175-1.171zm.15-6.634a.958.958 0 01.955 1.022l-.27 4.05a.837.837 0 01-1.67 0l-.271-4.05a.958.958 0 01.892-1.02l.032-.002h.331z"
            fill="#FFF" />
    </g>
</svg>