<svg viewBox="0 0 120 109">
  <defs>
    <linearGradient x1="50%" y1="0%" x2="50%" y2="99.999%" id="prefix__a">
      <stop offset="0%" />
      <stop offset="100%" />
    </linearGradient>
    <linearGradient x1="50%" y1=".001%" x2="50%" y2="100.001%" id="prefix__b">
      <stop offset="0%" />
      <stop offset="100%" />
    </linearGradient>
    <linearGradient x1="50%" y1="81.385%" x2="50%" y2="0%" id="prefix__c">
      <stop offset="0%" />
      <stop offset="100%" />
    </linearGradient>
    <linearGradient x1="50%" y1=".001%" x2="50%" y2="100.001%" id="prefix__d">
      <stop offset="0%" />
      <stop offset="100%" />
    </linearGradient>
    <linearGradient x1="75.226%" y1="42.203%" x2="39.064%" y2="59.478%" id="prefix__e">
      <stop offset="0%" />
      <stop offset="100%" />
    </linearGradient>
  </defs>
  <g transform="translate(0 .579)" fill="none">
    <path fill="#6A9CD8" opacity=".01" d="M0 1.053h118.947v107.368H0z" />
    <path
      d="M94.737 8.218v53.887H25.263c.116-26.798.223-30.919.34-57.726h15.56c.029 4.78.029 6.857 0 6.934v.01s.02-.01.029-.02v-.029a2.528 2.528 0 012.522-2.546 2.528 2.528 0 012.522 2.546v1.509H57.35V0h9.972v18.425c-.01.039-.01.068-.01.108v6.2c0 .91.728 1.645 1.63 1.645.893 0 1.621-.733 1.621-1.645v-4.83c3.133-.01 5.403-.02 6.906-.02 1.503 0 2.241.01 2.309.02.242-.03 0-3.743 0-3.743h4.744v4.398a1.2 1.2 0 001.193 1.205 1.2 1.2 0 001.194-1.205V8.216h7.827v.002z"
      fill="url(#prefix__a)" />
    <ellipse fill="url(#prefix__b)" cx="60.526" cy="80" rx="59.474" ry="28.421" />
    <ellipse fill="url(#prefix__c)" cx="62.579" cy="74.456" rx="27.213" ry="6" />
    <g transform="translate(38 28.421)">
      <path
        d="M1.795 0h44.283c.991 0 1.795.804 1.795 1.795V36.12c0 .991-.804 1.795-1.795 1.795H1.795A1.795 1.795 0 010 36.119V1.795C0 .804.804 0 1.795 0z"
        fill="url(#prefix__d)" />
      <path
        d="M2.4 1.717c.382 0 .69.31.69.694 0 .383-.308.693-.69.693a.692.692 0 01-.69-.693c0-.383.309-.694.69-.694zm2.072 0c.381 0 .69.31.69.694 0 .383-.309.693-.69.693a.692.692 0 01-.69-.693c0-.383.308-.694.69-.694zm2.071 0c.381 0 .69.31.69.694 0 .383-.309.693-.69.693a.692.692 0 01-.69-.693c0-.383.309-.694.69-.694z"
        fill="#E4F0FF" />
      <use fill="#E2EBFF" />
      <path
        d="M14.83 20.115a.556.556 0 00-.55-.56H11.34a.556.556 0 00-.55.56v2.994c0 .31.246.561.55.561h2.938c.305 0 .551-.251.551-.561v-2.994zm-1.102 2.433h-1.836v-1.871h1.836v1.87zm.551 2.245h-2.938a.556.556 0 00-.55.561v2.994c0 .31.246.561.55.561h2.938c.305 0 .551-.251.551-.561v-2.994a.556.556 0 00-.55-.561zm-.55 2.993h-1.837v-1.87h1.836v1.87zm17.997-6.735h-2.204a.556.556 0 00-.55.561c0 .31.246.561.55.561h2.204c.304 0 .55-.25.55-.56a.556.556 0 00-.55-.562zm-4.408 0H16.483a.556.556 0 00-.55.561c0 .31.246.561.55.561h10.835c.305 0 .551-.25.551-.56a.556.556 0 00-.55-.562zm4.408 5.239h-2.204a.556.556 0 00-.55.56c0 .311.246.562.55.562h2.204c.304 0 .55-.251.55-.561a.556.556 0 00-.55-.561zm-4.408 0H16.483a.556.556 0 00-.55.56c0 .311.246.562.55.562h10.835c.305 0 .551-.251.551-.561a.556.556 0 00-.55-.561z"
        fill="url(#prefix__e)" />
      <g fill="#4E83F8">
        <path
          d="M11.097 12.354l1.446 4.29h.81l.893-3.211.892 3.212h.81l1.446-4.291h-.967l-.9 3.246-.876-3.246h-.81l-.876 3.246-.9-3.246zM18.303 12.354l1.446 4.29h.81l.893-3.211.892 3.212h.81l1.446-4.291h-.967l-.9 3.246-.876-3.246h-.81l-.876 3.246-.9-3.246zM25.51 12.354l1.446 4.29h.81l.892-3.211.892 3.212h.81l1.447-4.291h-.967l-.9 3.246-.877-3.246h-.81l-.876 3.246-.9-3.246z" />
      </g>
      <circle fill="#FC6C38" cx="46" cy="33" r="9" />
      <g fill="#FFF">
        <path
          d="M49.5 32H49v-1c0-1.65-1.35-3-3-3s-3 1.35-3 3v1h-.5c-.25 0-.5.25-.5.5v5c0 .25.25.5.5.5h7c.25 0 .5-.25.5-.5v-5c0-.25-.25-.5-.5-.5zm-3.518 3.647a.644.644 0 110-1.288.644.644 0 010 1.288zM48 32h-4v-1c0-1.1.9-2 2-2s2 .9 2 2v1z" />
      </g>
    </g>
    <g opacity=".6" fill="#7AA1F8">
      <path
        d="M31.207 4.808a1.878 1.878 0 11.002-3.752 1.878 1.878 0 01-.002 3.752zm0-2.71a.834.834 0 000 1.666.834.834 0 000-1.666z" />
      <circle cx="1.355" cy="1.355" r="1.355" transform="translate(29.514 30.787)" />
      <circle cx="2.839" cy="2.839" r="2.839" transform="translate(90.298 46.35)" />
      <circle cx="1.12" cy="1.12" r="1.12" transform="translate(79.484 18.806)" />
      <circle cx=".965" cy=".965" r="1" transform="translate(95.78 10.093)" />
      <circle cx="1.334" cy="1.334" r="1.334" transform="translate(105.734 31.66)" />
      <circle cx="1.262" cy="1.262" r="1.262" transform="translate(86.769 69.518)" />
      <path
        d="M70.28 6.162a1.878 1.878 0 111.877-1.877 1.879 1.879 0 01-1.877 1.877zm0-2.709a.834.834 0 000 1.666.834.834 0 000-1.666zM51.564 79.916a1.878 1.878 0 111.877-1.877 1.879 1.879 0 01-1.877 1.877zm0-2.71a.834.834 0 000 1.666.834.834 0 000-1.666zM17.954 48.848h-3.622a.572.572 0 010-1.144h3.622a.572.572 0 010 1.144z" />
      <path
        d="M15.548 50.064v-3.576a.594.594 0 111.189 0v3.576a.594.594 0 11-1.189 0zM17.967 24.763h-2.353c-.204 0-.37-.224-.37-.5s.166-.5.37-.5h2.353c.204 0 .37.224.37.5s-.166.5-.37.5z" />
      <path
        d="M16.416 25.281V22.96c0-.213.223-.387.5-.387.275 0 .5.172.5.387v2.321c0 .213-.222.387-.5.387-.275 0-.5-.172-.5-.387zM48.761 17.41l-3.224-4.681.546-1.038c.801.042 1.603.086 2.404.127l.274 5.593zM47.567 18.12l-4.47-.824c-.091-.298-.185-.597-.278-.895l1.43-1.288c1.108 1.002 2.213 2.005 3.318 3.007zM49.5 16.67l.336-4.012.765-.324 1.26 1.149c-.786 1.062-1.574 2.123-2.36 3.187z" />
    </g>
  </g>
</svg>