<?xml version="1.0" encoding="utf-8"?>
<!-- Generator: Adobe Illustrator 24.0.1, SVG Export Plug-In . SVG Version: 6.00 Build 0)  -->
<svg version="1.1" id="图层_1" xmlns="http://www.w3.org/2000/svg" xmlns:xlink="http://www.w3.org/1999/xlink" x="0px" y="0px"
	 viewBox="0 0 159.6 36.2" style="enable-background:new 0 0 159.6 36.2;" xml:space="preserve">
<style type="text/css">
	.st0{fill:#0078FF;}
	.st1{fill:#FF58BC;}
	.st2{fill:#FF0000;}
	.st3{fill:#1D2129;}
</style>
<title>资源 1</title>
<g id="图层_2_1_">
	<g id="图层_1-2">
		<g>
			<polygon class="st0" points="6.9,14.7 12.5,7.3 7.2,0.2 0,0.2 0,5.6 			"/>
			<polygon class="st1" points="18.1,14.7 12.5,7.3 6.9,14.7 12.5,22.1 			"/>
			<polygon class="st2" points="0,23.8 0,29.1 7.2,29.1 12.5,22.1 6.9,14.7 			"/>
		</g>
		<polygon class="st3" points="28,0.2 18.1,14.7 20.7,18.1 27.8,8 27.8,29.1 32.3,29.1 32.3,0.2 		"/>
		<g>
			<path class="st3" d="M57.1,4.4c-1.4-1.3-3-2.2-4.8-2.8c-2.9-0.7-5.8-1-8.8-0.9h-6.2v28.2h9.2c3.7,0,6.6-0.6,8.6-1.8
				c2-1.2,3.6-2.9,4.6-5c1.1-2.1,1.6-4.4,1.6-6.8c0-2.1-0.3-4.3-1.1-6.3C59.6,7.3,58.5,5.7,57.1,4.4z M41.1,4.4h1.4
				c2.4-0.1,4.7,0.1,7.1,0.5c1.5,0.3,3,0.9,4.2,1.8c1.2,0.9,2.2,2.1,2.8,3.5c0.7,1.5,1,3.1,1,4.8c0,1.6-0.3,3.1-0.8,4.5
				c-0.5,1.3-1.3,2.4-2.4,3.3c-1.1,0.9-2.3,1.5-3.7,1.8c-2.3,0.4-4.6,0.5-6.9,0.5h-2.6L41.1,4.4z"/>
			<path class="st3" d="M86.6,18.9c0.1-3.2-1.1-6.2-3.2-8.5c-2-2.1-4.8-3.2-7.7-3.1c-2.9,0-5.7,1.2-7.7,3.3c-2,2.1-3.2,5-3.1,7.9
				c-0.1,2.9,1.1,5.8,3.1,7.9c2,2.2,4.9,3.4,7.9,3.3c2.1,0,4.1-0.5,5.9-1.6c1.8-1.3,3.3-3,4.2-5l0.1-0.3L83,21.1l-0.1,0.3
				c-1.7,3.2-4.1,4.7-7.3,4.7c-1.8,0-3.5-0.7-4.8-2c-1.3-1.3-2.1-3.1-2.2-4.9h18L86.6,18.9z M75.7,10.9c1.6,0,3.1,0.5,4.4,1.4
				c1.2,0.9,2,2.1,2.4,3.6H69.1C70.3,12.5,72.4,10.8,75.7,10.9L75.7,10.9z"/>
			<path class="st3" d="M96,10.7c1.5,0.2,2.9,0.9,3.9,2l0.2,0.2l2.4-2.5l-0.2-0.2c-2.1-2-4.1-3-5.9-3c-1.7-0.1-3.3,0.5-4.5,1.7
				c-1.1,1-1.7,2.5-1.7,4c-0.1,1.4,0.4,2.7,1.2,3.8c1,1.1,2.2,2,3.5,2.6c1.1,0.5,2.2,1.2,3.1,1.9c0.5,0.5,0.8,1.2,0.8,1.9
				c0,0.8-0.3,1.5-0.9,2c-0.6,0.6-1.4,0.9-2.2,0.9c-1.3,0-2.6-0.8-3.9-2.3l-0.2-0.3L89,26.1l0.2,0.2c1.5,2.1,3.9,3.3,6.5,3.3
				c1.8,0,3.5-0.7,4.7-1.9c1.3-1.2,2-2.9,1.9-4.7c0-1.3-0.4-2.7-1.3-3.7c-1-1.1-2.2-2-3.6-2.7c-1.1-0.5-2.1-1.2-3.1-2
				c-0.5-0.4-0.8-1-0.8-1.6c0-0.6,0.2-1.2,0.7-1.6C94.7,11,95.4,10.7,96,10.7z"/>
			<path class="st3" d="M107.9,0c-0.7,0-1.4,0.3-1.9,0.8c-0.5,0.5-0.8,1.2-0.8,1.9c0,0.7,0.3,1.4,0.8,1.9c1.1,1.1,2.8,1.1,3.8,0
				c0,0,0,0,0,0c0.5-0.5,0.8-1.2,0.8-1.9c0-0.7-0.3-1.4-0.8-1.9C109.4,0.3,108.7,0,107.9,0z"/>
			<rect x="106.1" y="7.7" class="st3" width="3.7" height="21.2"/>
			<path class="st3" d="M132.2,10.3c-1.9-2-4.6-3.1-7.3-3.1c-2.9,0-5.7,1.1-7.7,3.2c-2.1,2-3.3,4.8-3.2,7.6c-0.1,2.8,1,5.5,3,7.4
				c2,2.1,4.8,3.2,7.7,3.1c1.5,0,3-0.3,4.4-0.9c1.2-0.5,2.2-1.2,3.1-2.1c0,1.4-0.2,2.7-0.7,3.9c-0.6,1-1.4,1.8-2.5,2.3
				c-1.3,0.6-2.7,0.9-4.1,0.9c-3.3,0-5.6-1.2-7-3.8l-0.1-0.1h-3.9l0.2,0.4c1.8,4.6,5.5,7,11,7c1.5,0,3-0.2,4.5-0.7
				c1.3-0.4,2.5-1.2,3.5-2.1c1-1,1.7-2.1,2.2-3.4c0.6-2,0.8-4.1,0.7-6.1v-16h-3.7L132.2,10.3z M130.2,12.9c1.4,1.3,2.2,3.2,2.1,5.1
				c0.1,1.9-0.7,3.7-2,5c-3,2.7-7.6,2.7-10.6,0c-1.3-1.3-2.1-3-2.1-4.9c0-1.9,0.8-3.8,2.1-5.1c1.4-1.4,3.3-2.2,5.3-2.2
				C127.1,10.8,128.9,11.5,130.2,12.9L130.2,12.9z"/>
			<path class="st3" d="M158.7,11.7c-0.6-1.4-1.6-2.5-2.8-3.3c-1.3-0.8-2.7-1.2-4.2-1.2c-2.7,0-5.2,1.2-6.9,3.1V7.7H141v21.2h3.7V21
				c-0.1-1.8,0-3.6,0.3-5.4c0.2-0.9,0.7-1.7,1.2-2.5c0.6-0.8,1.3-1.4,2.2-1.8c1.5-0.8,3.2-0.8,4.8-0.2c0.6,0.2,1.1,0.7,1.5,1.2
				c0.4,0.6,0.7,1.3,0.9,2c0.3,1.5,0.4,3,0.3,4.5v10.1h3.7V18C159.7,15.9,159.4,13.7,158.7,11.7z"/>
		</g>
	</g>
</g>
</svg>
