<?xml version="1.0" encoding="utf-8"?>
<!-- Generator: Adobe Illustrator 24.0.1, SVG Export Plug-In . SVG Version: 6.00 Build 0)  -->
<svg version="1.1" id="图层_1" xmlns="http://www.w3.org/2000/svg" xmlns:xlink="http://www.w3.org/1999/xlink" x="0px" y="0px"
	 viewBox="0 0 40 40" style="enable-background:new 0 0 40 40;" xml:space="preserve">
<style type="text/css">
	.st0{fill:#0066EB;}
	.st1{fill:#00D929;}
</style>
<title>资源 1</title>
<g id="图层_2_1_">
	<g id="图层_1-2">
		<path class="st0" d="M11.9,6.4c-5.8,3-9.4,9-9.4,15.4c0,0.6,0.6,1.2,1.2,1.2s1.4-0.4,1.4-1.2c0-5.6,3.2-10.6,8-13.2
			c0.4-0.2,0.6-0.6,0.6-1c0-0.4-0.2-0.8-0.6-1.2C12.9,6.2,12.3,6.2,11.9,6.4z M9.7,36c3,2.2,6.7,3.4,10.4,3.4c3.6,0,7-1.2,10-3.2
			c0.4-0.2,0.6-0.6,0.6-1.2s-0.4-0.8-0.8-1c-0.4-0.2-0.8-0.2-1.2,0.2c-2.6,1.8-5.6,2.6-8.6,2.6c-3.2,0-6.2-1-8.8-2.8
			c-0.6-0.4-1.4-0.2-1.8,0.2C9.1,34.8,9.3,35.6,9.7,36L9.7,36z M37.5,21.8c0,0.6-0.6,1.2-1.2,1.2s-1.2-0.4-1.2-1.2
			c0-5.6-3.2-10.8-8-13.2c-0.4-0.2-0.6-0.6-0.6-1c0-0.4,0.2-0.8,0.6-1.2c0.4-0.4,0.8-0.2,1.2,0C33.9,9.4,37.7,15.4,37.5,21.8
			L37.5,21.8z"/>
		<path class="st1" d="M20,10.6c-2.8,0-5-2.2-5-5s2.2-5,5-5s5,2.2,5,5S22.8,10.6,20,10.6z M5,34.4c-2.8,0-5-2.2-5-5s2.2-5,5-5
			s5,2.2,5,5S7.8,34.4,5,34.4z M35,34.4c-2.8,0-5-2.2-5-5s2.2-5,5-5s5,2.2,5,5S37.8,34.4,35,34.4z"/>
	</g>
</g>
</svg>
