<?xml version="1.0" encoding="utf-8"?>
<!-- Generator: Adobe Illustrator 24.0.1, SVG Export Plug-In . SVG Version: 6.00 Build 0)  -->
<svg version="1.1" id="图层_1" xmlns="http://www.w3.org/2000/svg" xmlns:xlink="http://www.w3.org/1999/xlink" x="0px" y="0px"
	 viewBox="0 0 40 40" style="enable-background:new 0 0 40 40;" xml:space="preserve">
<style type="text/css">
	.st0{fill:#0066EB;}
	.st1{fill:#00D929;}
</style>
<title>资源 1</title>
<g id="图层_2_1_">
	<g id="图层_1-2">
		<path class="st0" d="M5.9,29.8c-1.8,0-3.2,1.5-3.2,3.2s1.5,3.2,3.2,3.2s3.2-1.5,3.2-3.2C9.1,31.3,7.7,29.8,5.9,29.8z M5.9,39
			C2.7,39,0,36.3,0,33.1s2.7-5.9,5.9-5.9s5.9,2.7,5.9,5.9S9.1,39,5.9,39z M34.1,29.8c-1.8,0-3.2,1.5-3.2,3.2s1.5,3.2,3.2,3.2
			s3.2-1.5,3.2-3.2C37.3,31.3,35.8,29.8,34.1,29.8z M34.1,39c-3.2,0-5.9-2.7-5.9-5.9s2.7-5.9,5.9-5.9s5.9,2.7,5.9,5.9
			S37.3,39,34.1,39z M20.2,29.8c-1.8,0-3.2,1.5-3.2,3.2s1.5,3.2,3.2,3.2s3.2-1.5,3.2-3.2S22,29.8,20.2,29.8L20.2,29.8z M20.2,39
			c-3.2,0-5.9-2.7-5.9-5.9s2.7-5.9,5.9-5.9s5.9,2.7,5.9,5.9S23.5,39,20.2,39z M20.2,3.7c-1.8,0-3.2,1.5-3.2,3.2s1.5,3.2,3.2,3.2
			s3.2-1.5,3.2-3.2S22,3.7,20.2,3.7L20.2,3.7L20.2,3.7z M20.2,12.8c-3.2,0-5.9-2.7-5.9-5.9S17,1,20.2,1s5.9,2.7,5.9,5.9
			S23.5,12.8,20.2,12.8L20.2,12.8z"/>
		<path class="st1" d="M35.3,24.7c-0.4-3.8-3.1-6.8-6.4-6.8h-7.3v-3.2c0-0.7-0.6-1.3-1.3-1.3c-0.7,0-1.3,0.6-1.3,1.3v3.2H11
			c-3.3,0-6,2.9-6.4,6.7c0,0.1,0,0.1,0,0.2c-0.1,0.7,0.4,1.4,1.2,1.5c0.7,0.1,1.4-0.4,1.5-1.2c0,0,0-0.1,0-0.1c0,0,0-0.1,0-0.1
			c0.3-2.4,1.9-4.3,3.8-4.3h7.8v4.4c0,0.7,0.6,1.3,1.4,1.3c0.7,0,1.3-0.6,1.3-1.3v-4.4h7.4c1.9,0,3.5,1.9,3.8,4.3V25
			c0,0.7,0.6,1.3,1.3,1.3c0.7,0,1.3-0.6,1.3-1.3C35.3,24.9,35.3,24.8,35.3,24.7z"/>
	</g>
</g>
</svg>
