<?xml version="1.0" encoding="utf-8"?>
<!-- Generator: Adobe Illustrator 24.0.1, SVG Export Plug-In . SVG Version: 6.00 Build 0)  -->
<svg version="1.1" id="图层_1" xmlns="http://www.w3.org/2000/svg" xmlns:xlink="http://www.w3.org/1999/xlink" x="0px" y="0px"
	 viewBox="0 0 40 40" style="enable-background:new 0 0 40 40;" xml:space="preserve">
<style type="text/css">
	.st0{clip-path:url(#SVGID_2_);}
	.st1{fill:#0066EB;}
	.st2{fill:#00D929;}
</style>
<title>资源 1</title>
<g id="图层_2_1_">
	<g id="图层_1-2">
		<g>
			<defs>
				<rect id="SVGID_1_" x="0.2" y="2.7" width="39.5" height="34.7"/>
			</defs>
			<clipPath id="SVGID_2_">
				<use xlink:href="#SVGID_1_"  style="overflow:visible;"/>
			</clipPath>
			<g class="st0">
				<path class="st1" d="M38.4,2.7H1.6c-0.7,0-1.3,0.6-1.3,1.3v24.1c0,0.7,0.6,1.3,1.3,1.3h5.6c0.4,0,0.8-0.2,1-0.5l7.5-9.3l3.4,2.8
					c0.5,0.4,1.4,0.4,1.8-0.1l6.6-7.2c0.6-0.4,0.7-1.3,0.3-1.9c-0.4-0.6-1.3-0.7-1.9-0.3c-0.1,0.1-0.3,0.2-0.4,0.4l-5.8,6.2
					l-3.5-2.9c-0.6-0.5-1.4-0.4-1.9,0.2c0,0,0,0,0,0l-7.9,9.8H2.9V5.4h34.2v21.4H18.6c-0.7,0-1.3,0.6-1.3,1.3v6.6H9.4
					c-0.7,0-1.3,0.6-1.3,1.3v0c0,0.7,0.6,1.3,1.3,1.3h18c0.7,0,1.3-0.6,1.3-1.3v0c0-0.7-0.6-1.3-1.3-1.3H20v-5.2h18.5
					c0.7,0,1.3-0.6,1.3-1.3V4.1C39.8,3.3,39.2,2.7,38.4,2.7C38.4,2.7,38.4,2.7,38.4,2.7z"/>
			</g>
		</g>
		<path class="st2" d="M28.7,13.6c-0.9,0-1.6-0.7-1.6-1.6c0-0.9,0.7-1.6,1.6-1.6s1.6,0.7,1.6,1.6c0,0.4-0.2,0.8-0.5,1.1
			C29.6,13.4,29.2,13.6,28.7,13.6z M28.7,7.7c-2.4,0-4.3,1.9-4.3,4.3c0,2.4,1.9,4.3,4.3,4.3c2.4,0,4.3-1.9,4.3-4.3
			c0-1.1-0.4-2.2-1.2-3C31,8.2,29.9,7.7,28.7,7.7z"/>
	</g>
</g>
</svg>
