<?xml version="1.0" standalone="no"?><!DOCTYPE svg PUBLIC "-//W3C//DTD SVG 1.1//EN" "http://www.w3.org/Graphics/SVG/1.1/DTD/svg11.dtd"><svg t="1636689510780" class="icon" viewBox="0 0 1055 1024" version="1.1" xmlns="http://www.w3.org/2000/svg" p-id="3949" xmlns:xlink="http://www.w3.org/1999/xlink" width="103.02734375" height="100"><defs><style type="text/css"></style></defs><path d="M964.359758 573.967515a37.794909 37.794909 0 0 1-37.888-37.888 409.662061 409.662061 0 0 0-196.111516-351.26303 37.794909 37.794909 0 0 1-14.336-51.696485 37.794909 37.794909 0 0 1 51.727516-14.336 11.170909 11.170909 0 0 1 2.544484 1.551515A484.600242 484.600242 0 0 1 1002.278788 536.079515c0 20.48-16.911515 37.85697-37.888 37.85697z" fill="#15D992" p-id="3950"></path><path d="M1002.247758 711.68c-48.128-58.368-134.144-66.032485-192.512-17.904485l-101.376-72.704a211.626667 211.626667 0 0 0 9.712484-61.967515 204.055273 204.055273 0 0 0-165.391515-200.207515v-99.29697a132.468364 132.468364 0 0 0 0-253.952 132.809697 132.809697 0 0 0-165.360485 89.05697 132.468364 132.468364 0 0 0 89.088 164.89503v99.824485c-8.192 1.551515-16.384 3.568485-24.048484 6.144-107.023515 34.288485-166.415515 148.48-132.096 255.503515l-101.903516 72.704c-34.816-28.70303-82.416485-37.391515-125.424484-24.079515a133.740606 133.740606 0 0 0-86.543516 167.936c22.528 70.128485 97.807515 109.568 167.936 87.04a133.740606 133.740606 0 0 0 86.543516-167.936l95.232-68.111515c8.688485 10.767515 18.432 19.983515 28.672 28.672a203.869091 203.869091 0 0 0 286.72-28.672l95.232 68.111515c-14.863515 44.559515-5.12 93.711515 24.576 130.048 48.09697 58.368 134.144 66.032485 192.512 17.935515a136.316121 136.316121 0 0 0 18.432-193.039515z m-487.951516-24.048485a128.062061 128.062061 0 0 1-128-128 128.062061 128.062061 0 0 1 128-128.03103 128.062061 128.062061 0 0 1 128 128.03103 128.062061 128.062061 0 0 1-128 128z" fill="#3D7EFF" p-id="3951"></path><path d="M289.016242 190.960485a411.710061 411.710061 0 0 0-187.392 345.11903c0 20.976485-16.880485 37.85697-37.856969 37.85697a37.794909 37.794909 0 0 1-37.919031-37.85697A487.299879 487.299879 0 0 1 247.032242 127.472485a38.508606 38.508606 0 0 1 52.751516 10.767515c11.791515 17.408 7.13697 40.96-10.767516 52.751515z m1.024 690.703515c1.551515 1.024 3.599515 2.048 5.12 3.072a418.288485 418.288485 0 0 0 435.2 0 38.229333 38.229333 0 0 1 51.727516 14.336 37.267394 37.267394 0 0 1-11.791516 49.648485 482.210909 482.210909 0 0 1-515.568484-0.496485 38.012121 38.012121 0 0 1-15.887516-51.2 38.291394 38.291394 0 0 1 51.2-15.36z" fill="#15D992" p-id="3952"></path></svg>