<?xml version="1.0" standalone="no"?><!DOCTYPE svg PUBLIC "-//W3C//DTD SVG 1.1//EN" "http://www.w3.org/Graphics/SVG/1.1/DTD/svg11.dtd"><svg t="1636689527999" class="icon" viewBox="0 0 1024 1024" version="1.1" xmlns="http://www.w3.org/2000/svg" p-id="5620" xmlns:xlink="http://www.w3.org/1999/xlink" width="100" height="100"><defs><style type="text/css"></style></defs><path d="M751.077053 249.191298C763.805193 231.370105 751.059088 206.596491 729.141895 206.596491h-46.196772a35.929825 35.929825 0 0 0-29.013334 14.731228L579.368421 323.368421l61.107649 80.842105 110.600983-155.019228z" fill="#75BB43" p-id="5621"></path><path d="M773.937404 770.425263c12.602386 17.84814-0.161684 42.487018-22.007018 42.487018h-46.295579a35.929825 35.929825 0 0 1-29.228912-15.027649L581.137965 664.701754l61.107649-80.842105L773.928421 770.425263z" fill="#EB2385" p-id="5622"></path><path d="M301.343439 206.596491c-21.953123 0-34.699228 24.845474-21.881264 42.666667L455.383579 494.035088 250.969825 769.922246c-13.177263 17.785263-0.47607 42.990035 21.647719 42.990035h52.385684a35.929825 35.929825 0 0 0 28.869614-14.542597L579.368421 494.035088 383.52393 221.552281A35.929825 35.929825 0 0 0 354.357895 206.596491h-53.005474z" fill="#13ADEE" p-id="5623"></path></svg>